<svg id="twrp-views-goo-dt" viewBox="0 0 24 24"><path style="opacity:0.3;" d="M12,6c-4.1,0-7.8,2.3-9.6,6c1.8,3.7,5.5,6,9.6,6s7.8-2.3,9.6-6C19.8,8.3,16.1,6,12,6z M12,16.9c-2.7,0-4.9-2.2-4.9-4.9S9.3,7.1,12,7.1s4.9,2.2,4.9,4.9S14.7,16.9,12,16.9z"/><path d="M12,3.8C6.5,3.8,1.9,7.2,0,12c1.9,4.8,6.5,8.2,12,8.2s10.1-3.4,12-8.2C22.1,7.2,17.5,3.8,12,3.8z M12,18c-4.1,0-7.8-2.3-9.6-6C4.2,8.3,7.9,6,12,6s7.8,2.3,9.6,6C19.8,15.7,16.1,18,12,18z M12,7.1c-2.7,0-4.9,2.2-4.9,4.9s2.2,4.9,4.9,4.9s4.9-2.2,4.9-4.9S14.7,7.1,12,7.1z M12,14.7c-1.5,0-2.7-1.2-2.7-2.7s1.2-2.7,2.7-2.7s2.7,1.2,2.7,2.7S13.5,14.7,12,14.7z"/></svg>
