<svg id="twrp-cal-ji-2-ol" viewBox="0 0 24 24"><path d="M10.8,3V1.8c0-0.7,0.5-1.3,1.2-1.3s1.2,0.5,1.2,1.3V3h3.4V1.8c0-0.7,0.5-1.3,1.1-1.3s1.1,0.5,1.1,1.3V3h1.2c1.9,0,3.4,1.7,3.4,3.9v12.8c0,2.1-1.6,3.9-3.4,3.9H4c-1.9,0-3.5-1.7-3.5-3.9V6.9C0.5,4.8,2.1,3,4,3h1.1V1.8c0-0.7,0.5-1.3,1.2-1.3S7.4,1,7.4,1.8V3H10.8z M10.8,5.6H7.4v1.3c0,0.7-0.5,1.3-1.2,1.3S5.1,7.6,5.1,6.9V5.6H4c-0.6,0-1.2,0.5-1.2,1.3v12.8c0,0.7,0.5,1.3,1.2,1.3h16.1c0.6,0,1.1-0.5,1.1-1.3V6.9c0-0.7-0.5-1.3-1.1-1.3h-1.2v1.3c0,0.7-0.5,1.3-1.1,1.3s-1.1-0.5-1.1-1.3V5.6h-3.5v1.3c0,0.7-0.5,1.3-1.2,1.3c-0.6,0-1.2-0.5-1.2-1.3C10.8,6.9,10.8,5.6,10.8,5.6z M4,10.7h2.3v2.5H4V10.7z M4,15.9h2.3v2.5H4V15.9z M17.8,15.9h2.3v2.5h-2.3V15.9z M17.8,10.7h2.3v2.5h-2.3V10.7z M8.6,10.7h2.3v2.5H8.6V10.7z M13.2,10.7h2.3v2.5h-2.3V10.7z M13.2,15.9h2.3v2.5h-2.3V15.9z M8.6,15.9h2.3v2.5H8.6V15.9z"/></svg>
