<svg id="twrp-user-ii-iosp-ol" viewBox="0 0 512 512"><path d="M256,0C114.6,0,0,114.5,0,256s114.6,256,256,256s256-114.5,256-256S397.4,0,256,0z M256,21.2c129.4,0,234.7,105.2,234.7,234.8c0,57.4-20.7,109.8-54.8,150.7l-0.1-0.1c-24.6-10.1-81.1-29.6-114.4-39.5c-2.9-0.9-3.3-1.1-3.3-13.2c0-10,4.1-20,8.1-28.6c4.5-9.2,9.4-24.9,11.4-38.9c5.2-6.1,12.3-17.8,16.7-40.5c4-19.9,2.1-27.2-0.5-34c-0.2-0.7-0.6-1.5-0.7-2.1c-1-4.7,0.4-28.9,3.9-47.8c2.3-13-0.6-40.4-18.4-63.1c-11.2-14.4-32.7-32-72-34.5h-21.5c-38.6,2.4-60,20-71.4,34.5c-17.8,22.8-20.8,50.2-18.5,63.1c3.4,18.8,4.8,43.1,3.9,47.8c-0.2,0.9-0.5,1.5-0.7,2.2c-2.5,6.8-4.6,14.1-0.5,34c4.6,22.7,11.6,34.5,16.7,40.5c1.8,14.1,7,29.5,11.4,38.9c3.2,6.8,4.7,16,4.7,29c0,12.1-0.5,12.3-3.2,13.2c-34.5,10.2-88.8,29.7-110.9,39.3C42,365.9,21.3,313.4,21.3,256C21.3,126.7,126.6,21.2,256,21.2z M90.3,422.1c24.5-9.8,72.1-26.8,102.3-35.8h0.2c10.3-3.2,14.3-10.4,15.7-16c1.1-3.9,1.2-8,1.2-16c0-16.1-2.1-27.9-6.5-37.4c-3.5-7.5-8.1-21.1-9.7-33.1l-0.7-5.8l-3.9-4.5c-2.3-2.7-8.4-11.3-12.5-31.5c-3.2-16-1.7-19.7-0.5-23V219l0.1-0.4c0.2-0.7,0.7-1.9,1.2-3.4l0.1-0.6l0.1-0.6c2.1-9.8-0.7-39.3-3.6-55.3c-1.3-7.6,0.4-29.2,14.5-47.6c8.7-11,25.7-24.7,56.5-26.8h20.3c31.5,2.1,48.5,15.8,57.1,26.9c14.3,18.2,15.9,39.9,14.5,47.6c-2.9,16-5.8,45.5-3.6,55.3l0.1,0.4l0.1,0.4c0.5,1.8,1.1,3.4,1.5,4.5c1.3,3.4,2.5,7.3-0.5,22.9c-4.1,20.1-9.9,28.6-12.3,31.5l-3.9,4.5l-0.7,5.9c-1.6,11.9-6.2,25.5-9.6,33c-5,10.4-9.9,23.2-9.9,37c0,7.2,0.1,11.8,1.3,16.3c1.6,5.5,5.6,12.5,15.9,15.8h0.2c29.2,8.6,78.7,25.6,105.8,36.2c-42.5,42.3-101.1,68.6-165.6,68.6C191.4,490.8,132.9,464.4,90.3,422.1L90.3,422.1z"/></svg>
