<svg id="twrp-user-ii-p-ol" viewBox="0 0 512 512"><path d="M201.2,200.4"/><path d="M427.6,428.7c-20.7-7.4-50.3-9.9-69.1-14.1c-10.8-2.4-26.8-8.5-32-14.7c-5.3-6.4-2.1-65.4-2.1-65.4s9.7-15.4,15-28.8c5.3-13.4,11.1-50.3,11.1-50.3s10.8,0,14.7-19.1c4.2-20.8,10.5-29.4,9.7-44.9c-0.8-14.4-8.3-15.2-9.1-15.2c0,0,7.8-21.8,8.9-67.8C376.1,53.7,334.4,0,256,0S136,53.6,137.1,108.2C138,154.1,146,176,146,176c-0.8,0-8.3,0.8-9.1,15.2c-0.8,15.5,5.8,23.8,9.7,44.6c3.9,19.1,14.7,19.2,14.7,19.2s5.8,37,11.1,50.4c5.3,13.6,15,28.8,15,28.8s3.2,59-2.1,65.4c-5.3,6.4-21.1,12.4-32,14.7c-19.1,4.2-48.5,6.9-69.1,14.2C63.7,436,0,460.8,0,512h512C512,460.8,448.3,436,427.6,428.7z M256,486.5H36.3c3.2-4.8,7.5-8.1,13.1-12.2c11.2-8.1,25.8-15.7,43.4-21.8c10.8-3.9,26.8-6.4,40.7-8.5c9.1-1.4,17.7-2.7,25.4-4.5c5.5-1.3,33.3-8,46-23.3c7.2-8.6,9.3-20.3,8.9-51.7c-0.2-16-0.9-30.9-0.9-31.5l-0.3-6.7l-3.6-5.6c-2.4-3.6-9.3-15.2-12.8-24.4c-2.8-7.5-7.4-30.7-9.6-44.9c0,0,0.6,1.6-0.8-5.9c-1.4-7.5-13.5-6.9-15-12.8c-1.4-5.8-2.8-11.1-6.9-29.1c-4.1-18,4.5-17.9,6.3-26c0.9-5,0-9.1,0-9.3c-0.5-1.6-6.6-21.4-7.5-60.3c-0.5-21.1,7.4-41,22.1-55.9c16.9-17.2,41.6-26.4,71.2-26.4c30.4,0,54.4,9.1,71.4,26.4C342,67,349.9,86.8,349.4,108c-0.8,38.7-6.9,58.6-7.5,60.3c0,0.2-0.9,2.7-0.6,8.3c0.3,8.6,10.8,8.8,6.9,26.9c-4,18-5.5,23.3-6.9,29.1s-13.6,5.3-15,12.8c-1.4,7.5-0.8,5.9-0.8,5.9c-2.2,14.2-6.7,37.4-9.6,44.9c-3.6,9.3-10.5,20.8-12.8,24.4l-3.6,5.6l-0.3,6.7c0,0.6-0.8,15.5-0.9,31.5c-0.3,31.3,1.7,43.1,8.9,51.7c12.8,15.2,40.7,22.1,46,23.3c7.7,1.7,16.3,3,25.4,4.5c13.9,2.1,29.8,4.7,40.7,8.5c17.6,6.3,32.3,13.8,43.4,21.9c5.6,4,9.9,7.4,13.1,12.2H256z"/></svg>
