<svg id="twrp-tax-ii-iof-ol" viewBox="0 0 512 512"><path d="M485.7,73.5H209.1c-3.2,0-4.9-0.7-7-2.8l-25.7-25.6l-0.2-0.2c-5.6-5.3-10.1-7.9-19.7-7.9h-128C12.8,37.1,0,48.9,0,63.3v383.1C0,461.6,13.4,475,28.6,475h457.1c14.5,0,26.3-12.8,26.3-28.5V99.8C512,84.6,500.9,73.5,485.7,73.5z M28.6,55.4h128c4,0,4.3,0.2,7.1,2.8l25.6,25.5c5.5,5.5,11.9,8.1,19.9,8.1h276.6c5.1,0,8,2.9,8,8V148c-2.9-1-5.9-1.6-9.1-1.6H27.4c-3.2,0-6.3,0.6-9.1,1.6V63.2C18.3,58.4,23.6,55.4,28.6,55.4z M493.7,446.5c0,4.9-3.1,10.3-8,10.3H28.6c-5.1,0-10.3-5.2-10.3-10.3V173.9c0-5,4.1-9.1,9.1-9.1h457.1c5,0,9.1,4.1,9.1,9.1v272.6H493.7z"/></svg>
