<svg id="twrp-views-fa-c-ol" viewBox="0 0 576 512"><path d="M446.4,364h25.2c7.2,0,14.4-7.2,14.4-14.4V90.4c0-7.2-7.2-14.4-14.4-14.4h-25.2c-7.2,0-14.4,7.2-14.4,14.4v259.2C432,356.8,439.2,364,446.4,364z M230.4,364h25.2c7.2,0,14.4-7.2,14.4-14.4V126.4c0-7.2-7.2-14.4-14.4-14.4h-25.2c-7.2,0-14.4,7.2-14.4,14.4v223.2C216,356.8,223.2,364,230.4,364z M338.4,364h25.2c7.2,0,14.4-7.2,14.4-14.4V198.4c0-7.2-7.2-14.4-14.4-14.4h-25.2c-7.2,0-14.4,7.2-14.4,14.4v151.2C324,356.8,331.2,364,338.4,364z M558,418H54V58c0-9.9-8.1-18-18-18H18C8.1,40,0,48.1,0,58v378c0,19.9,16.1,36,36,36h522c9.9,0,18-8.1,18-18v-18C576,426.1,567.9,418,558,418z M122.4,364h25.2c7.2,0,14.4-7.2,14.4-14.4v-79.2c0-7.2-7.2-14.4-14.4-14.4h-25.2c-7.2,0-14.4,7.2-14.4,14.4v79.2C108,356.8,115.2,364,122.4,364z"/></svg>
