<svg id="twrp-rat-ti-ol" viewBox="0 0 24 24"><path d="M18.2,23.5c-0.3,0-0.6-0.1-0.8-0.2l-0.1-0.1l-5.3-3l-5.3,3l-0.1,0.1c-0.6,0.3-1.4,0.2-2-0.2c-0.6-0.4-0.9-1.2-0.8-1.9l1.2-6l-2.1-1.9l-2.4-2.2l-0.1-0.1C0,10.5-0.1,9.8,0.1,9.1C0.3,8.5,0.9,8,1.6,7.8l0.1,0l6-0.7l2.5-5.5l0.1-0.1c0.3-0.6,1-1,1.7-1c0.7,0,1.3,0.4,1.7,1l0.1,0.1l2.5,5.5l6,0.7l0.1,0c0.7,0.1,1.3,0.6,1.5,1.3c0.2,0.7,0,1.4-0.4,1.9l-0.1,0.1l-4.5,4.1l1.2,5.9c0.1,0.8-0.2,1.5-0.8,1.9C19,23.4,18.6,23.5,18.2,23.5z M7.8,15.1c-0.1,0.2-0.6,2.9-1.1,5.2l4.7-2.7c0.4-0.2,0.9-0.2,1.3,0l4.7,2.7l-1.1-5.3c-0.1-0.4,0.1-0.9,0.4-1.2l4-3.6l-5.3-0.6c-0.5-0.1-0.8-0.3-1-0.7L12,4L9.8,8.9c-0.2,0.4-0.6,0.7-1,0.7l-5.3,0.6l4,3.6C7.7,14.2,7.9,14.6,7.8,15.1z"/></svg>
