<svg id="twrp-com-ti-d-ol" viewBox="0 0 24 24"><path d="M20.1,2H3.8C1.7,2,0,3.7,0,5.8v8.8c0,2.1,1.7,3.8,3.8,3.8H5V22l3.8-3.8h11.3c2.1,0,3.8-1.7,3.8-3.8V5.8C23.9,3.7,22.2,2,20.1,2z M21.4,14.5c0,0.7-0.6,1.3-1.3,1.3H3.8c-0.7,0-1.3-0.6-1.3-1.3V5.8c0-0.7,0.6-1.3,1.3-1.3h16.4c0.7,0,1.3,0.6,1.3,1.3V14.5z M6.3,12.6c-1.4,0-2.5-1.1-2.5-2.5s1.1-2.5,2.5-2.5s2.5,1.1,2.5,2.5S7.7,12.6,6.3,12.6z M6.3,8.9C5.6,8.9,5,9.4,5,10.1s0.6,1.3,1.3,1.3s1.3-0.6,1.3-1.3S7,8.9,6.3,8.9z M11.9,12.6c-1.4,0-2.5-1.1-2.5-2.5s1.1-2.5,2.5-2.5s2.5,1.1,2.5,2.5S13.3,12.6,11.9,12.6z M11.9,8.9c-0.7,0-1.3,0.6-1.3,1.3s0.6,1.3,1.3,1.3s1.3-0.6,1.3-1.3S12.6,8.9,11.9,8.9z M17.6,12.6c-1.4,0-2.5-1.1-2.5-2.5s1.1-2.5,2.5-2.5s2.5,1.1,2.5,2.5S19,12.6,17.6,12.6z M17.6,8.9c-0.7,0-1.3,0.6-1.3,1.3s0.6,1.3,1.3,1.3c0.7,0,1.3-0.6,1.3-1.3S18.3,8.9,17.6,8.9z"/></svg>
