<svg id="twrp-views-oi-t" viewBox="0 0 24 24"><path d="M15.5,12c0,1.9-1.6,3.5-3.5,3.5S8.5,13.9,8.5,12s1.6-3.5,3.5-3.5S15.5,10.1,15.5,12z"/><path style="fill-rule:evenodd;clip-rule:evenodd;" d="M12,3.5C8.6,3.5,5.9,5,3.8,6.7c-1.9,1.7-3.1,3.7-3.6,4.5c-0.3,0.5-0.3,1.1,0,1.6c0.5,0.9,1.7,2.8,3.6,4.5c1.9,1.7,4.6,3.2,8.2,3.2s6.1-1.5,8.2-3.2c1.9-1.7,3.1-3.6,3.6-4.5c0.3-0.5,0.3-1.1,0-1.6c-0.5-0.9-1.7-2.8-3.6-4.5C18.1,5,15.4,3.5,12,3.5z M1.5,11.9c0.4-0.8,1.6-2.5,3.3-4.1C6.7,6.3,9,5,12,5s5.3,1.3,7.1,2.9c1.8,1.6,2.9,3.3,3.3,4.1c0,0,0,0,0,0.1c0,0,0,0,0,0.1c-0.4,0.8-1.6,2.5-3.3,4.1C17.3,17.7,15,19,12,19s-5.3-1.3-7.1-2.9S1.9,12.8,1.5,12C1.5,12,1.5,12,1.5,11.9C1.5,12,1.5,12,1.5,11.9z"/></svg>
