<svg id="twrp-views-oi-ol" viewBox="0 0 16 16"><path style="fill-rule:evenodd;clip-rule:evenodd;" d="M1.7,7.9C2.1,7.3,2.9,6.2,4,5.2c1.1-1,2.5-1.7,4-1.7s2.8,0.7,4,1.7c1.1,1,2,2.1,2.4,2.7c0,0,0,0.1,0,0.1c-0.4,0.6-1.2,1.8-2.4,2.7c-1.1,1-2.5,1.7-4,1.7s-2.8-0.7-4-1.7c-1.1-1-2-2.1-2.4-2.7C1.7,8,1.7,8,1.7,7.9z M8,2C6,2,4.3,3,3.1,4.1c-1.3,1.1-2.2,2.3-2.6,3c-0.4,0.5-0.4,1.3,0,1.8c0.4,0.7,1.4,1.9,2.6,3C4.3,13,6,14,8,14s3.7-1,4.9-2.1c1.3-1.1,2.2-2.3,2.6-3c0.4-0.5,0.4-1.3,0-1.8c-0.4-0.7-1.4-1.9-2.6-3C11.7,3,10,2,8,2z M8,10c1.1,0,2-0.9,2-2S9.1,6,8,6S6,6.9,6,8S6.9,10,8,10z"/></svg>
