<svg id="twrp-views-fi-c-f" viewBox="0 0 100 100"><path d="M45.3,62.1H28.5c-1,0-1.8,0.8-1.8,1.8V90c0,1,0.8,1.8,1.8,1.8h16.8c1,0,1.8-0.8,1.8-1.8V63.9C47.1,62.9,46.3,62.1,45.3,62.1z"/><path d="M71.5,8.2H54.7c-1,0-1.8,0.8-1.8,1.8V90c0,1,0.8,1.8,1.8,1.8h16.8c1,0,1.8-0.8,1.8-1.8V10C73.3,9.1,72.5,8.2,71.5,8.2z"/><path d="M97.8,32.5H81c-1,0-1.8,0.8-1.8,1.8V90c0,1,0.8,1.8,1.8,1.8h16.8c1,0,1.8-0.8,1.8-1.8V34.3C99.6,33.3,98.8,32.5,97.8,32.5z"/><path d="M19,32.5H2.2c-1,0-1.8,0.8-1.8,1.8V90c0,1,0.8,1.8,1.8,1.8H19c1,0,1.8-0.8,1.8-1.8V34.3C20.8,33.3,20,32.5,19,32.5z"/></svg>
