<svg id="twrp-user-fi-f-f" viewBox="0 0 100 100"><path d="M90.8,64.4L69.1,54.3l-9.6-4.5c0-0.1,0-0.1,0.1-0.3h15.2c0.7,0,1.3-0.6,1.3-1.3V37.4h0C75.6,25.1,71.4,14.2,65,7.4C61.7,3.6,57.3,1,52.5,0.3c-0.2,0-0.4-0.1-0.7-0.1c-0.3,0-0.5-0.1-0.8-0.1C50.5,0,50,0,49.4,0h1.2l0,0c0,0,0,0,0,0C50,0,49.5,0,49,0.1c-0.3,0-0.5,0.1-0.8,0.1c-0.2,0-0.4,0.1-0.6,0.1C42.7,1,38.4,3.6,35.1,7.3C28.7,14.1,24.4,25,24,37.4h0v8.8c0,1.8,1.5,3.3,3.3,3.3h12.2c0.3,0.2,0.7,0.4,1,0.6l-8.8,4L9.2,64.4c-2,0.9-3.2,3.1-3.2,5.5v20.5v3.7c0,3.2,2.3,5.9,5.2,5.9h77.7c2.8,0,5.1-2.6,5.1-5.9v-3.7V69.9C94,67.5,92.7,65.4,90.8,64.4z"/></svg>
