<svg id="twrp-user-fi-tie-f" viewBox="0 0 100 100"><path d="M91.3,64.3L69.9,54.1l-9.1-4.3c4-2.5,7.2-6.3,9.3-11c1.7-3.7,2.7-7.9,2.7-12.3c0-2.5-0.4-4.9-1-7.2C69.1,8.2,60.4,0,50,0C39.8,0,31.2,7.9,28.4,18.7c-0.7,2.5-1.1,5.1-1.1,7.8c0,4.7,1.1,9.2,3,13c2.2,4.5,5.4,8.1,9.3,10.5l-8.7,4L8.7,64.3c-1.9,0.9-3.2,3.1-3.2,5.5v20.6v3.7c0,3.3,2.3,5.9,5.1,5.9h32.9V81.4c0-0.2,0.1-0.4,0.2-0.5l0,0l5.4-9.3l0,0c0.2-0.3,0.5-0.6,0.9-0.6s0.7,0.2,0.9,0.6l0,0l0,0.1c0,0,0,0,0,0l5.3,9.2l0,0c0.1,0.2,0.2,0.3,0.2,0.5V100h32.9c2.8,0,5.1-2.6,5.1-5.9v-3.7V69.8C94.5,67.4,93.2,65.2,91.3,64.3z M56.3,58.1L56.3,58.1L51,67.4l0,0C50.7,67.7,50.4,68,50,68s-0.7-0.2-0.9-0.6l0,0L49,67.3c0,0,0,0,0,0l-5.3-9.2l0,0c-0.1-0.2-0.2-0.3-0.2-0.5c0-0.6,0.5-1.1,1.1-1.1h10.8c0.6,0,1.1,0.5,1.1,1.1C56.5,57.7,56.4,57.9,56.3,58.1z"/></svg>
