<svg id="twrp-tax-goo-h-f" viewBox="0 0 24 24"><path d="M23.3,11.5L12.5,0.7c-0.4-0.4-1-0.7-1.7-0.7H2.4C1.1,0,0,1.1,0,2.4v8.4c0,0.7,0.3,1.3,0.7,1.7l10.8,10.8c0.4,0.4,1,0.7,1.7,0.7c0.7,0,1.3-0.3,1.7-0.7l8.4-8.4c0.4-0.4,0.7-1,0.7-1.7C24,12.5,23.7,11.9,23.3,11.5z M4.2,6c-1,0-1.8-0.8-1.8-1.8s0.8-1.8,1.8-1.8S6,3.2,6,4.2S5.2,6,4.2,6z M18.3,15.9L13.2,21l-5.1-5.1c-0.5-0.6-0.9-1.3-0.9-2.1c0-1.7,1.3-3,3-3c0.8,0,1.6,0.3,2.1,0.9l0.9,0.9l0.9-0.9c0.5-0.5,1.3-0.9,2.1-0.9c1.7,0,3,1.3,3,3C19.2,14.6,18.9,15.4,18.3,15.9z"/></svg>
