<svg id="twrp-dcom-twrp-cs-f" viewBox="0 0 100 100"><path d="M98,7.8v25.9c0,3.2-2.9,5.8-6.5,5.8h-2.4v7.5c0,0.9-1.1,1.4-1.9,0.9l-9.1-6v-4c0-1.5-0.5-3-1.4-4.2c-1.6-2.1-4.3-3.6-7.4-3.6H46V7.8c0-1.1,0.4-2.2,1-3.1C48.2,3.1,50.2,2,52.5,2h39c0.7,0,1.3,0.1,1.9,0.3c0,0,0,0,0,0C96.1,3,98,5.2,98,7.8z"/><path d="M60.9,86.4H33.7L16.6,97.7c-1.1,0.7-2.6,0-2.6-1.2V86.4h-3.3c-4.8,0-8.8-3.5-8.8-7.8V43.8c0-3.5,2.6-6.4,6.1-7.4c0,0,0,0,0,0c0.8-0.2,1.6-0.3,2.4-0.3L60.9,86.4z"/><path d="M98.8,96L96,98.8c-1.6,1.6-4.1,1.6-5.7,0L1.2,9.7c-1.6-1.6-1.6-4.1,0-5.7L4,1.2c1.6-1.6,4.1-1.6,5.6,0L44.5,36h18.8c3,0,5.6,1.3,7.2,3.4c0.1,0.1,1.5,2.8,1.5,4.4v19.8l26.8,26.8C100.4,91.9,100.4,94.4,98.8,96z"/></svg>
