<svg id="twrp-dcom-twrp-c2-ol" viewBox="0 0 100 100"><path d="M50,11.5c-5.7,0-11.1,0.9-16.1,2.6l6.5,6.5c3.1-0.7,6.3-1.1,9.6-1.1c19.6,0,35.5,12.9,35.5,28.8c0,4.8-1.5,9.4-4.1,13.4l5.7,5.7c4-5.6,6.3-12.1,6.3-19.1C93.5,28,74,11.5,50,11.5z M56.7,76.5C54.5,76.9,52.3,77,50,77c-5.2,0-10.3-0.9-15.1-2.8l-2.2-0.8l-1.8,1.5c-3.3,2.7-7.3,4.4-12.1,5.2c1.6-2.6,3.3-6.1,4.3-10.2l0.5-2.2l-1.6-1.6c-5-5.1-7.7-11.3-7.7-17.8c0-4,1-7.8,2.8-11.2l-5.8-5.8c-3.2,5.1-5,10.9-5,17c0,7.8,2.9,15.4,8.3,21.6c-1.9,5.8-5.5,9.7-5.6,9.7c-1.4,1.5-1.8,3.7-1,5.7c0.8,2,2.7,3.2,4.8,3.2c8.2,0,15.3-2,21-6C39.2,84.2,44.5,85,50,85c4.7,0,9.2-0.6,13.4-1.8L56.7,76.5z"/><path d="M98.8,98.8C98,99.6,97,100,96,100c-1,0-2.1-0.4-2.8-1.2L1.2,6.9c-1.6-1.6-1.6-4.1,0-5.7C2,0.4,3,0,4,0c1,0,2.1,0.4,2.8,1.2l91.9,91.9C100.3,94.7,100.3,97.2,98.8,98.8z"/></svg>
