<svg id="twrp-dcom-twrp-cs-t" viewBox="0 0 100 100"><path d="M90,2H54c-4.4,0-8,3.2-8,7.2V29l3,3h1V9.2C50,7.4,51.8,6,54,6h36c2.2,0,4,1.4,4,3.2v23.3c0,1.7-1.8,3.2-4,3.2h-4.2v7.1l-10.9-7.1h-0.7c1.2,1.4,1.8,3.2,1.8,5v0.5l10.2,6.5c0.4,0.2,0.8,0.4,1.2,0.4c0.4,0,0.8-0.1,1.1-0.3c0.7-0.4,1.2-1.1,1.2-1.9l0-6.2H90c4.4,0,8-3.2,8-7.2V9.2C98,5.2,94.4,2,90,2z"/><path d="M67.7,84.7c-1.7,1.1-3.7,1.7-6,1.7H34.5L17.1,97.6c-0.4,0.2-0.8,0.4-1.3,0.4c-0.4,0-0.8-0.1-1.2-0.3c-0.8-0.4-1.2-1.2-1.2-2l0-1.8v-7.4h-1.1C6.6,86.4,2,82.3,2,77.3V45.1c0-4.8,4.2-8.8,9.5-9.1c0.1,0,3.9,0,7.5,0l4,4H12.2c-0.1,0-1.6,0.1-2.2,0.3c-2.3,0.7-4,2.6-4,4.8v32.1c0,2.8,2.8,5.1,6.2,5.1h5.1v10.4l4.7-3l11.3-7.3h28.4c1.1,0,2.1-0.2,3-0.6L67.7,84.7z"/><path d="M72,45.1V55l-4-4v-5.9c0-2.8-2.8-5.1-6.2-5.1H57l-4-4h8.8c3.3,0,6.3,1.4,8.1,3.6C71.2,41.1,72,43.1,72,45.1z"/><path d="M99.4,99.4C99,99.8,98.5,100,98,100s-1-0.2-1.4-0.6l-96-96c-0.8-0.8-0.8-2,0-2.8C1,0.2,1.5,0,2,0s1,0.2,1.4,0.6l96,96C100.2,97.3,100.2,98.6,99.4,99.4z"/></svg>
