<svg id="twrp-dcom-twrp-cs2-t" viewBox="0 0 100 100"><path d="M92.9,37C96.2,33.3,98,28.7,98,24C98,11.8,86.3,2,72,2s-26,9.8-26,22c0,2.1,0.4,4.2,1,6.1c0.1,0.4,1.1,1.4,1.4,1.5c1.4,0.2,2.8,0.5,4.1,0.9C50.9,29.9,50,27,50,24C50,14,59.9,6,72,6s22,8,22,18c0,4.1-1.7,7.9-4.8,11.1l-0.8,0.8l0.3,1.1c0.7,2.9,2,5.3,3.1,6.9c-3.4-0.4-6.2-1.5-8.5-3.4l-0.9-0.7l-1.1,0.4c-3,1.2-6.1,1.7-9.3,1.7c-1,0-2.1-0.1-3.1-0.2c1.3,1.3,2.4,2.7,3.4,4.2c3.2,0,6.4-0.6,9.4-1.6c3.5,2.5,7.7,3.7,12.7,3.7c1.1,0,2.1-0.7,2.5-1.7c0.4-1,0.2-2.2-0.5-3C96.4,43.3,94.1,40.8,92.9,37z"/><path d="M65.6,82.6C59.2,90.1,48.8,95.1,37,95.1c-4.6,0-9.2-0.8-13.5-2.3C18.8,96.2,13,98,6.1,98c-1.2,0-2.3-0.7-2.8-1.9c-0.5-1.1-0.2-2.4,0.6-3.3c0,0,3.6-3.9,5.2-9.4C4.5,78.3,2,72,2,65.5c0-8.4,4.2-16.1,11-21.4c2.6-2.1,5.6-3.9,9-5.2L25,42c-3.4,1.2-6.6,2.9-9.2,4.9c-4.1,3.2-7.2,7.3-8.7,12C6.4,61,6,63.2,6,65.5c0,5.5,2.1,10.8,6.1,15.2c0.2,0.3,1.5,1.6,1.5,1.6l-0.3,1.1c-0.8,3.4-2.3,6.3-3.6,8.4c-0.5,0.9-1.1,1.6-1.5,2.2c2.1-0.1,4-0.4,5.9-1c3-0.8,5.6-2.2,7.8-4l0.9-0.7l1.1,0.4c1.1,0.4,2.2,0.8,3.4,1.1c3.1,0.9,6.4,1.3,9.7,1.3c2.9,0,5.7-0.3,8.3-0.9c7.2-1.7,13.4-5.4,17.5-10.4L65.6,82.6z"/><path d="M99.4,99.4C99,99.8,98.5,100,98,100s-1-0.2-1.4-0.6l-96-96c-0.8-0.8-0.8-2,0-2.8C1,0.2,1.5,0,2,0s1,0.2,1.4,0.6l96,96C100.2,97.3,100.2,98.6,99.4,99.4z"/></svg>
