<svg id="twrp-dcom-twrp-c2-dt" viewBox="0 0 100 100"><path style="fill-opacity:0.3;" d="M56.7,76.5C54.5,76.9,52.3,77,50,77c-5.2,0-10.3-0.9-15.1-2.8l-2.2-0.8l-1.8,1.5c-3.3,2.7-7.3,4.4-12.1,5.2c1.6-2.6,3.3-6.1,4.3-10.2l0.5-2.2l-1.6-1.6c-5-5.1-7.7-11.3-7.7-17.8c0-4,1-7.8,2.8-11.2L56.7,76.5z"/><path style="fill-opacity:0.3;" d="M85.5,48.3c0,4.8-1.5,9.4-4.1,13.4l-41-41c3.1-0.7,6.3-1.1,9.6-1.1C69.6,19.5,85.5,32.4,85.5,48.3z"/><path d="M63.5,83.2C59.2,84.4,54.7,85,50,85c-5.5,0-10.8-0.9-15.9-2.6c-5.7,4-12.8,6-21,6c-2.1,0-4-1.2-4.8-3.2c-0.8-1.9-0.4-4.1,1-5.7c0-0.1,3.7-4,5.6-9.7c-5.4-6.3-8.3-13.9-8.3-21.6c0-6.1,1.8-11.9,5-17l5.8,5.8c-1.8,3.4-2.8,7.2-2.8,11.2c0,6.5,2.7,12.7,7.7,17.8l1.6,1.6l-0.5,2.2c-1,4.1-2.7,7.6-4.3,10.2c4.7-0.8,8.8-2.5,12.1-5.2l1.8-1.5l2.2,0.8C39.7,76.1,44.8,77,50,77c2.3,0,4.5-0.2,6.7-0.5L63.5,83.2z"/><path d="M93.5,48.3c0,7-2.3,13.5-6.3,19.1l-2.8-2.8l-2.9-2.9c2.6-4,4.1-8.5,4.1-13.4c0-15.9-15.9-28.8-35.5-28.8c-3.3,0-6.5,0.4-9.6,1.1l-6.5-6.5c5-1.7,10.4-2.6,16.1-2.6C74,11.5,93.5,28,93.5,48.3z"/><path d="M98.8,98.8C98,99.6,97,100,96,100c-1,0-2.1-0.4-2.8-1.2L1.2,6.9c-1.6-1.6-1.6-4.1,0-5.7C2,0.4,3,0,4,0c1,0,2.1,0.4,2.8,1.2l91.9,91.9C100.3,94.7,100.3,97.2,98.8,98.8z"/></svg>
