<svg id="twrp-com-ii-c-f" viewBox="0 0 512 512"><path d="M473,319.8c0.9-1.3,1.7-2.6,2.6-3.8c21.9-32.5,33.5-70.7,33.6-109.9C509.5,93.9,414.8,2.9,297.7,2.9c-102.1,0-187.3,69.5-207.2,161.7c-3,13.7-4.5,27.6-4.5,41.6C86,318.5,177,412,294.1,412c18.6,0,43.7-5.6,57.4-9.4c13.8-3.8,27.4-8.8,30.9-10.1c3.5-1.3,9-2.7,13.4-1.5l87.5,25.3c2.4,0.7,4.9-0.7,5.6-3.1c0.2-0.8,0.2-1.6,0-2.4l-20-76.3C467.6,329,467.4,327.9,473,319.8z"/><path d="M319.9,436.1c-8.7,1.4-17.5,2.2-26.3,2.3c-47.9,0-93.2-12.7-130-36.4c-23.5-14.4-43.9-33.4-60-55.7c-29.5-39.1-45.5-88.7-45.5-140.7c0-3.5,0.1-6.9,0.2-10.4c0.1-2.7-2-5-4.7-5.1c-1.5-0.1-2.9,0.5-3.8,1.6c-55.7,60.9-62.6,152-16.8,220.6c2.8,4.3,4.4,7.5,3.9,9.7L21,503.8c-0.5,2.5,1.1,4.8,3.6,5.3c0.8,0.1,1.6,0.1,2.3-0.2l76.8-27.4c4.7-1.9,10-1.8,14.6,0.2c23,9,48.4,14.6,73.9,14.6c49,0.2,96.1-18.4,131.8-52c1.9-1.9,2-4.9,0.1-6.9C323,436.4,321.4,435.9,319.9,436.1z"/></svg>
