<svg id="twrp-com-ii-t-sh" viewBox="0 0 512 512"><path d="M484.6,18.5H27.4C12.2,18.5,0,30.7,0,45.9v328.9c0,15.2,12.2,27.4,27.4,27.4h82.3v91.4l134.5-91.4h240.3c15.2,0,27.4-12.2,27.4-27.4V45.9C512,30.7,499.8,18.5,484.6,18.5z M146.3,246.9c-20.2,0-36.6-16.4-36.6-36.6s16.4-36.6,36.6-36.6s36.6,16.4,36.6,36.6S166.5,246.9,146.3,246.9z M256,246.9c-20.2,0-36.6-16.4-36.6-36.6s16.4-36.6,36.6-36.6s36.6,16.4,36.6,36.6S276.2,246.9,256,246.9z M365.7,246.9c-20.2,0-36.6-16.4-36.6-36.6s16.4-36.6,36.6-36.6s36.6,16.4,36.6,36.6S386,246.9,365.7,246.9z M484.6,55L484.6,55z"/></svg>
