<svg id="twrp-com-ii-t2-f" viewBox="0 0 512 512"><path d="M506.5,199.5c-11.8-55.6-43.2-106.2-88.3-142.5C372.2,20,314.9,0,255.8,0C186.2,0,121.2,26.8,72.5,75.6C25.5,122.7-0.2,184.9,0,250.7c0,48.2,14.2,95.5,40.8,135.7l5,6.9L18.3,512l131.2-32.7c0,0,2.6,0.9,4.6,1.6c1.9,0.7,18.7,7.2,36.4,12.1c14.8,4.1,45.4,10.3,69.5,10.3c68.2,0,131.8-26.4,179.2-74.3c47-47.5,72.8-110.9,72.8-178.2C512,233.5,510.2,216.4,506.5,199.5z M146.3,292.6c-20.2,0-36.6-16.4-36.6-36.6s16.4-36.6,36.6-36.6s36.6,16.4,36.6,36.6S166.5,292.6,146.3,292.6z M256,292.6c-20.2,0-36.6-16.4-36.6-36.6s16.4-36.6,36.6-36.6s36.6,16.4,36.6,36.6S276.2,292.6,256,292.6z M365.7,292.6c-20.2,0-36.6-16.4-36.6-36.6s16.4-36.6,36.6-36.6c20.2,0,36.6,16.4,36.6,36.6C402.3,276.2,386,292.6,365.7,292.6z"/></svg>
