<svg id="twrp-com-ii-ios-f" viewBox="0 0 512 512"><path d="M256.2,41C114.6,41,0,133.8,0,248.2c0,41.2,14.9,79.6,40.5,111.9c1.1,1.2,3.9,5.2,4.8,6.6c0,0-1.4-2.1-1.5-2.5l0,0l0,0l0,0c3,4.4,4.8,9.6,4.8,15c0,1.9-23.9,77.9-23.9,77.9l0,0c-1.8,5.9,2.8,12,10.1,13.5c1,0.3,2.1,0.3,3.2,0.3c1.8,0,3.3-0.3,4.9-0.6l2.1-0.8l67.5-29.6c1.1-0.5,12-4.7,13.4-5.3l0.8-0.3c0,0-0.1,0-0.8,0.3c4.5-1.6,9.6-2.4,14.9-2.4c4.8,0,9.5,0.6,13.8,2c0.1,0,0.3,0,0.3,0.1c0.6,0.3,1.4,0.4,2,0.6c30.8,10.6,64.6,13.9,100.2,13.9c141.5,0,254.8-86,254.8-200.5C512.3,133.8,397.6,41,256.2,41L256.2,41z"/></svg>
