<svg id="twrp-cal-fi-c-ol" viewBox="0 0 100 100"><path d="M50,13.3c20.3,0,36.7,16.5,36.7,36.7c0,20.3-16.5,36.7-36.7,36.7c-20.3,0-36.7-16.5-36.7-36.7C13.3,29.7,29.7,13.3,50,13.3 M50,0C22.4,0,0,22.4,0,50s22.4,50,50,50s50-22.4,50-50S77.6,0,50,0L50,0z"/><path d="M75.6,31.4l-5.2-5.2c-1-1-2.8-1-3.7,0L50,42.9l-9.2-9.2c-1-1-2.7-1-3.7,0L32,38.9c-0.5,0.5-0.8,1.2-0.8,1.9c0,0.7,0.3,1.4,0.8,1.9l16.2,16.2c0.5,0.5,1.2,0.8,1.9,0.8c0,0,0.1,0,0.1,0c0.7,0,1.3-0.3,1.8-0.8l23.7-23.7C76.6,34.1,76.6,32.4,75.6,31.4z"/></svg>
