<svg id="twrp-cal-fi-f" viewBox="0 0 100 100"><path d="M92.1,35.6H7.9c-1,0-1.7,0.8-1.7,1.7v60.4c0,1,0.8,1.7,1.7,1.7h84.1c1,0,1.7-0.8,1.7-1.7V37.3C93.8,36.3,93,35.6,92.1,35.6z M35.4,86.7c-2.9,0-6.1-0.6-8.6-1.6c-0.4-0.1-0.6-0.5-0.5-0.9l0.8-5.9c0-0.3,0.2-0.5,0.4-0.6c0.2-0.1,0.5-0.2,0.8-0.1c2.7,1,5,1.4,7.9,1.4c3,0,5.1-1.4,5.1-3.5c0-2.5-1.2-3.9-7.9-4.3c-0.5,0-0.8-0.4-0.8-0.9v-5.9c0-0.5,0.4-0.8,0.8-0.9c5.8-0.4,6.4-2.2,6.4-3.5c0-0.9,0-2.3-3.9-2.3c-2.1,0-4.3,0.6-6.6,1.7c-0.3,0.1-0.5,0.1-0.8,0c-0.2-0.1-0.4-0.4-0.5-0.6l-0.8-5.9c-0.1-0.4,0.1-0.7,0.5-0.9c2.7-1.2,6-1.9,10-1.9c7.1,0,11.8,3.3,11.8,8.2c0,3.7-1.9,6.4-5.8,8.2c3.3,1.3,6.7,3.6,6.7,8.6C50.5,82.1,44.6,86.7,35.4,86.7z M72.1,85.3c0,0.5-0.4,0.9-0.9,0.9h-7.2c-0.5,0-0.9-0.4-0.9-0.9V61.6l-4.7,1.8c-0.3,0.1-0.5,0.1-0.8-0.1c-0.2-0.1-0.4-0.4-0.4-0.6l-0.8-5.9c-0.1-0.4,0.1-0.7,0.5-0.9l10.3-5.1c0.1-0.1,0.3-0.1,0.4-0.1h3.6c0.5,0,0.9,0.4,0.9,0.9L72.1,85.3L72.1,85.3z"/><path d="M92.1,8.4h-9v4.2c0,4.4-2.5,9.2-9.7,9.2s-9.7-4.8-9.7-9.2V8.4H36.4v4.2c0,4.4-2.5,9.2-9.7,9.2c-7.1,0-9.7-4.8-9.7-9.2V8.4H7.9c-1,0-1.7,0.8-1.7,1.7v17.7c0,1,0.8,1.7,1.7,1.7h84.1c1,0,1.7-0.8,1.7-1.7V10.1C93.8,9.1,93,8.4,92.1,8.4z"/><path d="M26.7,16.1c2.9,0,4.1-1,4.1-3.6V8.4V4.2c0-2.5-1.2-3.6-4.1-3.6c-2.9,0-4.1,1-4.1,3.6v4.2v4.2C22.6,15.1,23.8,16.1,26.7,16.1z"/><path d="M73.4,16.1c2.9,0,4.1-1,4.1-3.6V8.4V4.2c0-2.5-1.2-3.6-4.1-3.6c-2.9,0-4.1,1-4.1,3.6v4.2v4.2C69.4,15.1,70.5,16.1,73.4,16.1z"/></svg>
