<svg id="twrp-user-ji-sq-ol" viewBox="0 0 24 24"><path d="M4.8,0h14.4C21.8,0,24,2.1,24,4.8v14.4c0,2.6-2.1,4.8-4.8,4.8H4.8C2.2,24,0,21.9,0,19.2V4.8C0,2.1,2.1,0,4.8,0z M4.8,2.4c-1.3,0-2.4,1.1-2.4,2.4v14.4c0,1.3,1.1,2.4,2.4,2.4h14.4c1.3,0,2.4-1.1,2.4-2.4V4.8c0-1.3-1.1-2.4-2.4-2.4H4.8z M6.2,21.5H4.8c-0.3,0-0.7-0.1-1-0.2c0.5-2,2-3.7,4-4.5c0.6-0.3,1.3,0,1.6,0.6c0.3,0.6,0,1.3-0.6,1.6c0,0,0,0-0.1,0C7.5,19.5,6.6,20.4,6.2,21.5z M17.6,21.5c-0.5-1.1-1.4-2-2.5-2.5c-0.6-0.2-0.9-0.9-0.7-1.5c0.2-0.6,0.9-0.9,1.5-0.7c0,0,0,0,0.1,0c2,0.8,3.5,2.4,4.1,4.5c-0.3,0.1-0.6,0.2-0.9,0.2H17.6L17.6,21.5z M11.9,4.8c2.6,0,4.8,2.1,4.8,4.8v2.3c0,2.6-2.1,4.8-4.8,4.8s-4.8-2.2-4.8-4.8V9.5C7.1,6.9,9.3,4.8,11.9,4.8z M11.9,7.1c-1.3,0-2.4,1.1-2.4,2.4v2.4c0,1.3,1.1,2.4,2.4,2.4s2.4-1.1,2.4-2.4V9.5C14.4,8.2,13.3,7.1,11.9,7.1z"/></svg>
