<svg id="twrp-rat-ti-f" viewBox="0 0 24 24"><path d="M0.6,11.1l4.7,4.2l-1.3,5.9c-0.1,0.8,0.1,1.5,0.8,1.9c0.3,0.3,0.6,0.4,1,0.4c0.3,0,0.5,0,0.8-0.1c0,0,0.1,0,0.1-0.1l5.3-2.9l5.3,2.9c0,0,0.1,0,0.1,0.1c0.6,0.3,1.4,0.3,1.9-0.1c0.6-0.4,0.9-1.1,0.8-1.9l-1.3-5.9c0.5-0.4,1.3-1.1,2.1-1.9l2.5-2.2l0.1-0.1c0.5-0.5,0.6-1.3,0.4-1.9c-0.3-0.6-0.8-1.1-1.6-1.3h-0.1l-6.1-0.6l-2.5-5.5c0,0,0-0.1-0.1-0.1c-0.1-0.9-0.8-1.3-1.4-1.3s-1.3,0.4-1.7,1c0,0,0,0.1-0.1,0.1L7.8,7.1L1.7,7.8H1.6C1,7.9,0.3,8.4,0,9C-0.1,9.8,0,10.6,0.6,11.1z"/></svg>
