<svg id="twrp-tax-ci-2-f" viewBox="0 0 29.23 32"><path d="M16.663,3.527C15.847,2.899,6.169-0.18,5.353,0.009C4.538,0.198,0.39,3.779,0.076,4.47c-0.312,0.691,0.438,9.738,0.502,10.618c0.062,0.88,11.458,16.592,12.716,16.907c1.258,0.313,15.745-10.938,15.936-11.881C29.418,19.172,17.479,4.155,16.663,3.527z M5.596,9.427C5.117,7.295,6.046,5.268,7.671,4.905C9.295,4.54,11,5.974,11.479,8.107c0.479,2.133-0.45,4.158-2.074,4.523C7.78,12.995,6.075,11.561,5.596,9.427z M8.634,18.424l9.924-7.697l2.079,2.683l-9.923,7.695L8.634,18.424z M14.481,26.038l-2.08-2.683l9.924-7.696l2.079,2.681L14.481,26.038z"/></svg>
