<svg id="twrp-com-oi-c-ol" viewBox="0 0 16 16"><path style="fill-rule:evenodd;clip-rule:evenodd;" d="M1.5,2.8c0-0.1,0.1-0.3,0.3-0.3h8.5c0.1,0,0.3,0.1,0.3,0.3v5.5c0,0.1-0.1,0.3-0.3,0.3H6.8c-0.2,0-0.4,0.1-0.5,0.2l-2.7,2.7V9.3c0-0.4-0.3-0.8-0.8-0.8h-1c-0.1,0-0.3-0.1-0.3-0.3V2.8z M1.8,1C0.8,1,0,1.8,0,2.8v5.5c0,1,0.8,1.8,1.8,1.8H2v1.5C2,12.3,2.7,13,3.5,13c0.4,0,0.8-0.2,1-0.4L7.1,10h3.2c1,0,1.8-0.8,1.8-1.8V2.8c0-1-0.8-1.8-1.8-1.8H1.8z M14.5,4.8c0-0.1-0.1-0.3-0.3-0.3h-0.5c-0.4,0-0.8-0.3-0.8-0.8S13.3,3,13.8,3h0.5c1,0,1.8,0.8,1.8,1.8v5.5c0,1-0.8,1.8-1.8,1.8H14v1.5c0,0.8-0.7,1.5-1.5,1.5c-0.4,0-0.8-0.2-1-0.4l-2.3-2.3c-0.3-0.3-0.3-0.8,0-1.1s0.8-0.3,1.1,0c0,0,0,0,0,0l2.2,2.2v-2.2c0-0.4,0.3-0.8,0.8-0.8h1c0.1,0,0.3-0.1,0.3-0.3C14.5,10.3,14.5,4.8,14.5,4.8z"/></svg>
