<svg id="twrp-tax-oi-ol" viewBox="0 0 16 16"><path style="fill-rule:evenodd;clip-rule:evenodd;" d="M1.6,7.3V1.9c0-0.1,0.1-0.3,0.3-0.3h5.4c0.1,0,0.1,0,0.2,0.1l6.8,6.8c0.1,0.1,0.1,0.3,0,0.4c0,0,0,0,0,0l-5.4,5.4c-0.1,0.1-0.3,0.1-0.4,0c0,0,0,0,0,0L1.7,7.5C1.7,7.5,1.6,7.4,1.6,7.3z M0,7.3V1.9C0,0.8,0.8,0,1.9,0h5.4c0.5,0,1,0.2,1.3,0.6l6.8,6.8c0.7,0.7,0.7,1.9,0,2.7L10,15.4c-0.7,0.7-1.9,0.7-2.7,0L0.6,8.7C0.2,8.3,0,7.8,0,7.3z M5.4,4.3c-0.6,0-1.1,0.5-1.1,1.1s0.5,1.1,1.1,1.1S6.5,6,6.5,5.4S6,4.3,5.4,4.3z"/></svg>
