<svg id="twrp-user-di-f-f" viewBox="0 0 20 20"><path d="M17.3,11.2c-1.1-1-2.7-1.1-4.1-1.2l1.2,2.6L10,17.2l-4.4-4.5L6.8,10c-1.5,0-3,0.2-4.1,1.2c-1,0.9-1.2,2.4-1.2,3.9v3.5c0,0,4.1,1.5,8.5,1.4c4.4,0.1,8.5-1.4,8.5-1.4v-3.5C18.5,13.7,18.3,12.2,17.3,11.2z M5.9,9.1c1,0,2.4-0.5,2.7-0.9c-1-1.2-1.8-2.5-1-4.9c0,0,1.3,1.5,5.2,1.9c0,1.2-0.6,2.1-1.3,3c0.2,0.4,1.7,0.9,2.7,0.9s1.7-0.2,1.7-0.6c0-0.4-1.6-1.6-1.9-2.7c-0.4-1.1-0.1-2.4-0.6-3.9C12.5,0.1,10.8,0,10,0C9.1,0,7.4,0.1,6.7,1.9C6.2,3.4,6.5,4.6,6.1,5.8S4.2,8.1,4.2,8.5C4.2,8.9,4.9,9.1,5.9,9.1z"/><path d="M10,11.2L7.2,10l2.8,7.2l2.8-7.2"/></svg>
