<svg id="twrp-user-goo-box-dt" viewBox="0 0 24 24"><path style="opacity:0.3;" d="M2.7,21.3h18.6V2.7H2.7V21.3z M12,4c2.2,0,4,1.8,4,4s-1.8,4-4,4s-4-1.8-4-4S9.8,4,12,4z M4,18c0-3.3,5.3-4.8,8-4.8s8,1.4,8,4.8v2H4V18z"/><path d="M12,12c2.2,0,4-1.8,4-4s-1.8-4-4-4S8,5.8,8,8S9.8,12,12,12z M12,6.7c0.7,0,1.3,0.6,1.3,1.3S12.6,9.3,12,9.3c-0.7,0-1.3-0.6-1.3-1.3S11.3,6.7,12,6.7z M21.2,0H2.7C1.2,0,0,1.2,0,2.7v18.7C0,22.8,1.2,24,2.7,24h18.6c1.5,0,2.7-1.2,2.7-2.7V2.7C23.9,1.2,22.7,0,21.2,0z M21.2,21.3H2.7V2.7h18.6L21.2,21.3L21.2,21.3z M19.9,18c0-3.3-5.3-4.8-8-4.8S4,14.6,4,18v2h15.9V18z M7.1,17.3c0.9-0.7,3.2-1.5,4.9-1.5s4,0.7,4.9,1.5H7.1z"/></svg>
