<svg id="twrp-user-goo-ci-ol" viewBox="0 0 24 24"><path d="M12,0C5.4,0,0,5.4,0,12s5.4,12,12,12s12-5.4,12-12S18.6,0,12,0z M6.1,19.5c0.5-1.1,3.7-2.1,5.9-2.1s5.4,1.1,5.9,2.1c-1.6,1.3-3.7,2.1-5.9,2.1S7.7,20.8,6.1,19.5z M19.6,17.8C17.9,15.7,13.8,15,12,15s-5.9,0.7-7.6,2.8c-1.2-1.6-2-3.6-2-5.8c0-5.3,4.3-9.6,9.6-9.6s9.6,4.3,9.6,9.6C21.6,14.2,20.9,16.2,19.6,17.8z M12,4.8C9.7,4.8,7.8,6.7,7.8,9s1.9,4.2,4.2,4.2s4.2-1.9,4.2-4.2S14.3,4.8,12,4.8z M12,10.8c-1,0-1.8-0.8-1.8-1.8S11,7.2,12,7.2S13.8,8,13.8,9S13,10.8,12,10.8z"/></svg>
