<svg id="twrp-com-ji-c2-ol" viewBox="0 0 24 24"><path d="M9,16.7l0.7-0.1c0.1,0,0.3-0.1,0.5-0.1c2.4-0.6,4-2.4,4-4.4c0-2.5-2.5-4.6-5.8-4.6S2.8,9.6,2.8,12c0,1.4,0.8,2.7,2.2,3.6l0,0l1.2,0.7v3.2L9,16.7z M10.1,18.8l-4.2,4.4c-0.4,0.5-1.2,0.5-1.6,0C4.1,23,4,22.7,4,22.3v-4.7c-0.1,0-0.1-0.1-0.2-0.1c-2-1.3-3.3-3.3-3.3-5.6c0-3.8,3.6-6.9,8.1-6.9s8.1,3.1,8.1,6.9c0,3.1-2.4,5.8-5.8,6.6C10.6,18.7,10.4,18.8,10.1,18.8z M8.5,4c1.4-2.1,4-3.5,7-3.5c4.4,0,8.1,3.1,8.1,6.9c0,2.3-1.3,4.3-3.3,5.6c0,0-0.1,0.1-0.2,0.1v4.7c0,0.6-0.5,1.2-1.2,1.2c-0.3,0-0.6-0.1-0.8-0.4l-2-2.1l1.2-2.1l0.5,0.5v-3.2l1.2-0.7l0,0c1.4-0.9,2.2-2.2,2.2-3.6c0-2.5-2.5-4.6-5.8-4.6c-1.5,0-2.8,0.4-3.8,1.2H8.5z"/></svg>
