<svg id="twrp-com-ci-3-f" viewBox="0 -1.308 32 32"><path d="M25.975,1.701C23.785,0.719,13.923-3.248,4.26,5.889c0,0-10.146,10.158,0.877,16.728c1.323,0.786,3.462,1.309,4.085,1.704c0.497,0.318,0.127,4.839,0.697,5.039c1.17,0.414,5.988-4.436,6.531-4.756c0.805-0.479,13.225-2.783,15.264-11.354C33.256,6.768,28.165,2.682,25.975,1.701z M11.548,13.205c-0.632,1.313-1.935,2-2.909,1.53c-0.974-0.469-1.25-1.914-0.618-3.229c0.633-1.314,1.935-2,2.909-1.531C11.904,10.445,12.181,11.891,11.548,13.205z M18.674,13.504c-0.855,1.776-2.616,2.705-3.934,2.069c-1.316-0.633-1.691-2.588-0.836-4.364c0.855-1.777,2.618-2.705,3.933-2.07C19.156,9.771,19.529,11.727,18.674,13.504z M24.529,13.205c-0.633,1.313-1.938,2-2.91,1.53c-0.975-0.469-1.251-1.914-0.618-3.229c0.632-1.314,1.935-2,2.908-1.531C24.885,10.445,25.161,11.891,24.529,13.205z"/></svg>
