<svg id="twrp-views-ti-c-ol" viewBox="0 0 24 24"><path d="M18.3,4.8c-1,0-1.8,0.4-2.5,0.9V3.6c0-2-1.7-3.6-3.8-3.6S8.3,1.6,8.3,3.6v5.7C7.6,8.8,6.7,8.4,5.8,8.4C3.7,8.4,2,10,2,12v7.2h20V8.4C22,6.4,20.3,4.8,18.3,4.8z M12,2.4c0.7,0,1.3,0.5,1.3,1.2v13.2h-2.5V3.6C10.8,2.9,11.3,2.4,12,2.4z M7,16.8H4.5V12c0-0.7,0.6-1.2,1.3-1.2S7,11.3,7,12V16.8z M19.5,16.8H17V8.4c0-0.7,0.6-1.2,1.3-1.2s1.3,0.5,1.3,1.2V16.8z M20.8,24H3.3C2.6,24,2,23.5,2,22.8c0-0.7,0.6-1.2,1.3-1.2h17.5c0.7,0,1.3,0.5,1.3,1.2C22,23.5,21.4,24,20.8,24z"/></svg>
