<svg id="twrp-views-ti-ol" viewBox="0 0 24 24"><path d="M12,6.7c1.6,0,3.2,0.5,4.4,1.3c1.7,1.2,3.2,2.8,4.2,4c-1,1.2-2.5,2.8-4.2,4c-1.2,0.9-2.8,1.3-4.4,1.3S8.8,16.9,7.6,16c-1.7-1.2-3.2-2.8-4.2-4c1-1.2,2.5-2.8,4.2-4C8.8,7.1,10.4,6.7,12,6.7 M12,4C9.7,4,7.7,4.7,6.1,5.8C2.6,8.3,0,12,0,12s2.6,3.7,6.1,6.2C7.7,19.3,9.7,20,12,20s4.3-0.7,5.9-1.8C21.4,15.7,24,12,24,12s-2.6-3.7-6.1-6.2C16.3,4.7,14.3,4,12,4z M12,10.7c-0.7,0-1.3,0.6-1.3,1.3c0,0.7,0.6,1.3,1.3,1.3c0.7,0,1.3-0.6,1.3-1.3C13.3,11.3,12.7,10.7,12,10.7z M12,16c-2.2,0-4-1.8-4-4s1.8-4,4-4s4,1.8,4,4S14.2,16,12,16z M12,9.3c-1.5,0-2.7,1.2-2.7,2.7s1.2,2.7,2.7,2.7s2.7-1.2,2.7-2.7S13.5,9.3,12,9.3z"/></svg>
