<svg id="twrp-views-ti-f" viewBox="0 0 24 24"><path d="M23.8,11.3c-0.1-0.1-2.5-3.5-5.8-5.9c-1.7-1.2-3.8-1.9-6-1.9c-2.2,0-4.3,0.7-6,1.9c-3.3,2.3-5.6,5.7-5.7,5.9c-0.3,0.4-0.3,1,0,1.4c0.1,0.1,2.5,3.5,5.7,5.9c1.7,1.2,3.8,1.9,6,1.9c2.2,0,4.3-0.7,6-1.9c3.3-2.3,5.7-5.7,5.8-5.9C24.1,12.3,24.1,11.7,23.8,11.3z M12,16.2c-2.3,0-4.2-1.9-4.2-4.2c0-2.3,1.9-4.2,4.2-4.2c2.3,0,4.2,1.9,4.2,4.2C16.2,14.3,14.3,16.2,12,16.2z M14.4,12c0,1.3-1.1,2.4-2.4,2.4c-1.3,0-2.4-1.1-2.4-2.4c0-1.3,1.1-2.4,2.4-2.4C13.3,9.6,14.4,10.7,14.4,12z"/></svg>
