<svg id="twrp-cal-ii-f" viewBox="0 0 512 512"><path d="M438.8,36.6h-18.3V18.8c0-9.8-7.6-18.3-17.6-18.8c-10.2-0.4-18.8,7.3-19.4,17.4c0,0.3,0,0.5,0,0.9v18.3H128.5V18.8c0-9.8-7.6-18.3-17.6-18.8c-10.2-0.4-18.8,7.3-19.4,17.4c0,0.3,0,0.5,0,0.9v18.3H73.2C32.8,36.6,0,69.3,0,109.7v329.2C0,479.3,32.8,512,73.2,512h365.6c40.4,0,73.2-32.7,73.2-73.1V109.7C512,69.3,479.2,36.6,438.8,36.6z M118.7,439.1c-15.1,0-27.5-12.3-27.5-27.4c0-15.1,12.3-27.4,27.5-27.4s27.5,12.3,27.5,27.4C146.2,426.8,133.9,439.1,118.7,439.1z M118.7,347.7c-15.1,0-27.5-12.3-27.5-27.4c0-15.1,12.3-27.4,27.5-27.4s27.5,12.3,27.5,27.4C146.2,335.4,133.9,347.7,118.7,347.7z M210.2,439.1c-15.1,0-27.5-12.3-27.5-27.4c0-15.1,12.3-27.4,27.5-27.4s27.5,12.3,27.5,27.4C237.7,426.8,225.4,439.1,210.2,439.1z M210.2,347.7c-15.1,0-27.5-12.3-27.5-27.4c0-15.1,12.3-27.4,27.5-27.4s27.5,12.3,27.5,27.4C237.7,335.4,225.4,347.7,210.2,347.7z M301.8,439.1c-15.1,0-27.5-12.3-27.5-27.4c0-15.1,12.3-27.4,27.5-27.4c15.1,0,27.5,12.3,27.5,27.4C329.2,426.8,316.9,439.1,301.8,439.1z M301.8,347.7c-15.1,0-27.5-12.3-27.5-27.4c0-15.1,12.3-27.4,27.5-27.4c15.1,0,27.5,12.3,27.5,27.4C329.2,335.4,316.9,347.7,301.8,347.7z M301.8,256.3c-15.1,0-27.5-12.3-27.5-27.4c0-15.1,12.3-27.4,27.5-27.4c15.1,0,27.5,12.3,27.5,27.4C329.2,244,316.9,256.3,301.8,256.3L301.8,256.3z M393.3,347.7c-15.1,0-27.5-12.3-27.5-27.4c0-15.1,12.3-27.4,27.5-27.4s27.5,12.3,27.5,27.4C420.7,335.4,408.4,347.7,393.3,347.7z M393.3,256.3c-15.1,0-27.5-12.3-27.5-27.4c0-15.1,12.3-27.4,27.5-27.4s27.5,12.3,27.5,27.4C420.7,244,408.4,256.3,393.3,256.3L393.3,256.3z M475,119.1v18.2c0,5-4.1,9.1-9.2,9.1H45.1c-5,0-9.2-4.1-9.2-9.1V110c0.1-20.1,16.4-36.3,36.6-36.4h365.8c20.2,0.1,36.5,16.3,36.6,36.4V119.1z"/></svg>
