<svg id="twrp-cal-ii-it-ol" viewBox="0 0 512 512"><path d="M256,0C114.6,0,0,114.6,0,256s114.6,256,256,256s256-114.6,256-256S397.4,0,256,0z M424.1,424.1c-21.8,21.8-47.3,39-75.5,51c-29.3,12.3-60.5,18.6-92.6,18.6s-63.2-6.3-92.6-18.6c-28.3-12-53.7-29.1-75.5-51s-39-47.3-51-75.5c-12.3-29.4-18.6-60.5-18.6-92.6s6.3-63.2,18.6-92.6c12-28.3,29.1-53.7,51-75.5s47.3-39,75.5-51c29.4-12.3,60.5-18.6,92.6-18.6s63.2,6.3,92.6,18.6c28.3,12,53.7,29.1,75.5,51s39,47.3,51,75.5c12.3,29.3,18.6,60.5,18.6,92.6s-6.3,63.2-18.6,92.6C463.1,376.8,445.9,402.3,424.1,424.1z"/><circle cx="256" cy="54.9" r="9.1"/><circle cx="256" cy="457.1" r="9.1"/><circle cx="457.1" cy="256" r="9.1"/><circle cx="54.9" cy="256" r="9.1"/><circle cx="155.4" cy="81.8" r="9.1"/><circle cx="356.6" cy="430.2" r="9.1"/><circle cx="430.2" cy="155.4" r="9.1"/><circle cx="81.8" cy="356.6" r="9.1"/><circle cx="81.8" cy="155.4" r="9.1"/><circle cx="430.2" cy="356.6" r="9.1"/><circle cx="356.6" cy="81.8" r="9.1"/><circle cx="155.4" cy="430.2" r="9.1"/><path d="M271.9,246.9c-3.3-5.7-9.3-8.9-15.3-9.1l-43.4-72.5c-2.6-4.3-8.2-5.7-12.6-3.1c-4.3,2.6-5.7,8.2-3.1,12.6l43,71.9c-3.3,5.5-3.7,12.7-0.2,18.6c1.7,2.9,4,5.1,6.7,6.6v139.5c0,5,4.1,9.1,9.1,9.1c5,0,9.1-4.1,9.1-9.1V271.9C273.9,266.7,276.9,255.7,271.9,246.9z"/></svg>
