<svg id="twrp-user-ii-p-f" viewBox="0 0 512 512"><path d="M427.7,428.7c-20.6-7.4-50.3-9.9-69.1-14.1c-10.9-2.4-26.7-8.5-32-14.7c-5.3-6.4-2-65.4-2-65.4s9.8-15.4,15-28.8c5.3-13.4,11.1-50.3,11.1-50.3s10.9,0,14.7-19.1c4.2-20.8,10.6-29.4,9.8-44.9c-0.8-14.4-8.3-15.2-9.1-15.2c0,0,7.8-21.8,8.9-67.8C376.2,53.7,334.4,0,256,0S136,53.6,137.1,108.2c0.9,45.9,8.9,67.8,8.9,67.8c-0.8,0-8.3,0.8-9.1,15.2c-0.8,15.5,5.8,23.8,9.8,44.6c3.9,19.1,14.7,19.2,14.7,19.2s5.8,37,11.1,50.4c5.3,13.6,15,28.8,15,28.8s3.1,59-2,65.4c-5.3,6.4-21.1,12.4-32,14.7c-19,4.2-48.5,6.9-69.1,14.2C63.7,436,0,460.8,0,512h512C512,460.8,448.3,436,427.7,428.7z"/></svg>
