<svg id="twrp-cal-ii-it-f" viewBox="0 0 512 512"><path d="M256,0C114.6,0,0,114.6,0,256s114.6,256,256,256s256-114.6,256-256S397.4,0,256,0z M256,45.7c5,0,9.1,4.1,9.1,9.1S261,64,256,64s-9.1-4.1-9.1-9.1S251,45.7,256,45.7z M54.9,265.1c-5,0-9.1-4.1-9.1-9.1s4.1-9.1,9.1-9.1S64,251,64,256S59.9,265.1,54.9,265.1z M86.4,364.5c-4.3,2.5-9.9,1-12.5-3.3c-2.5-4.3-1-9.9,3.3-12.5c4.3-2.5,9.9-1,12.5,3.3C92.2,356.3,90.7,361.9,86.4,364.5z M89.7,160c-2.5,4.3-8.1,5.8-12.5,3.3c-4.3-2.5-5.8-8.1-3.3-12.5c2.5-4.3,8.1-5.8,12.5-3.3C90.7,150.1,92.2,155.7,89.7,160z M150.9,73.9c4.3-2.5,9.9-1,12.5,3.3s1,9.9-3.3,12.5c-4.3,2.5-9.9,1-12.5-3.3C145,82.1,146.5,76.5,150.9,73.9z M163.3,434.7c-2.5,4.3-8.1,5.8-12.5,3.3c-4.3-2.5-5.8-8.1-3.3-12.5c2.5-4.3,8.1-5.8,12.5-3.3C164.3,424.8,165.8,430.4,163.3,434.7z M256,466.3c-5,0-9.1-4.1-9.1-9.1s4.1-9.1,9.1-9.1s9.1,4.1,9.1,9.1S261,466.3,256,466.3z M265.1,271.9v139.5c0,5-4.1,9.1-9.1,9.1s-9.1-4.1-9.1-9.1V271.8c-2.7-1.6-5-3.8-6.7-6.6c-3.4-5.9-3.1-13.1,0.2-18.6l-43-71.9c-2.6-4.3-1.1-9.9,3.1-12.6c4.3-2.6,9.9-1.1,12.6,3.1l43.4,72.5c6.2,0.1,12.1,3.4,15.3,9.1C276.9,255.7,273.9,266.7,265.1,271.9z M361.1,438.1c-4.3,2.5-9.9,1-12.5-3.3c-2.5-4.3-1-9.9,3.3-12.5s9.9-1,12.5,3.3C367,429.9,365.5,435.5,361.1,438.1z M364.5,86.4c-2.5,4.3-8.1,5.8-12.5,3.3s-5.8-8.1-3.3-12.5c2.5-4.3,8.1-5.8,12.5-3.3C365.5,76.5,367,82.1,364.5,86.4z M438.1,361.1c-2.5,4.3-8.1,5.8-12.5,3.3c-4.3-2.5-5.8-8.1-3.3-12.5c2.5-4.3,8.1-5.8,12.5-3.3C439.1,351.2,440.7,356.8,438.1,361.1z M434.7,163.3c-4.3,2.5-9.9,1-12.5-3.3c-2.5-4.3-1-9.9,3.3-12.5c4.3-2.5,9.9-1,12.5,3.3C440.7,155.2,439.1,160.8,434.7,163.3z M457.1,265.1c-5,0-9.1-4.1-9.1-9.1s4.1-9.1,9.1-9.1s9.1,4.1,9.1,9.1S462.2,265.1,457.1,265.1z"/></svg>
