<svg id="twrp-cal-ii-ol" viewBox="0 0 512 512"><path style="fill:none;stroke:currentColor;stroke-width:32;stroke-linejoin:round;" d="M71.4,52.3h369.3c30.5,0,55.4,24.9,55.4,55.5v332.7c0,30.6-24.8,55.5-55.4,55.5H71.4C40.8,496,16,471.1,16,440.5V107.8C16,77.2,40.8,52.3,71.4,52.3z"/><path d="M419.7,52.3H92.3C50.3,52.3,16,87.1,16,129.7v70.1h18.5c0-18.2,18.5-36.3,36.9-36.3h369.1c18.5,0,36.9,18.2,36.9,36.3H496v-70.1C496,87.1,461.7,52.3,419.7,52.3z"/><ellipse cx="302.7" cy="228.3" rx="27.7" ry="27.7"/><ellipse cx="394.9" cy="228.3" rx="27.7" ry="27.7"/><ellipse cx="302.7" cy="320.7" rx="27.7" ry="27.7"/><ellipse cx="394.9" cy="320.7" rx="27.7" ry="27.7"/><ellipse cx="118.2" cy="320.7" rx="27.7" ry="27.7"/><ellipse cx="210.4" cy="320.7" rx="27.7" ry="27.7"/><ellipse cx="118.2" cy="413.2" rx="27.7" ry="27.7"/><ellipse cx="210.4" cy="413.2" rx="27.7" ry="27.7"/><ellipse cx="302.7" cy="413.2" rx="27.7" ry="27.7"/><line style="fill:none;stroke:currentColor;stroke-width:32;stroke-linecap:round;stroke-linejoin:round;" x1="109.4" y1="16" x2="109.4" y2="52.3"/><line style="fill:none;stroke:currentColor;stroke-width:32;stroke-linecap:round;stroke-linejoin:round;" x1="403.7" y1="16" x2="403.7" y2="52.3"/></svg>
