<svg id="twrp-cal-ii-sh" viewBox="0 0 512 512"><path d="M279.1,201.5h45.3c2.5,0,4.6,2.1,4.6,4.6v45.3c0,2.5-2.1,4.6-4.6,4.6h-45.3c-2.5,0-4.6-2.1-4.6-4.6v-45.3C274.5,203.6,276.6,201.5,279.1,201.5z"/><path d="M370.6,201.5h45.3c2.5,0,4.6,2.1,4.6,4.6v45.3c0,2.5-2.1,4.6-4.6,4.6h-45.3c-2.5,0-4.6-2.1-4.6-4.6v-45.3C366,203.6,368.1,201.5,370.6,201.5z"/><path d="M279.1,293h45.3c2.5,0,4.6,2.1,4.6,4.6v45.3c0,2.5-2.1,4.6-4.6,4.6h-45.3c-2.5,0-4.6-2.1-4.6-4.6v-45.3C274.5,295.1,276.6,293,279.1,293z"/><path d="M370.6,293h45.3c2.5,0,4.6,2.1,4.6,4.6v45.3c0,2.5-2.1,4.6-4.6,4.6h-45.3c-2.5,0-4.6-2.1-4.6-4.6v-45.3C366,295.1,368.1,293,370.6,293z"/><path d="M96.1,293h45.3c2.5,0,4.6,2.1,4.6,4.6v45.3c0,2.5-2.1,4.6-4.6,4.6H96.1c-2.5,0-4.6-2.1-4.6-4.6v-45.3C91.5,295.1,93.6,293,96.1,293z"/><path d="M187.6,293h45.3c2.5,0,4.6,2.1,4.6,4.6v45.3c0,2.5-2.1,4.6-4.6,4.6h-45.3c-2.5,0-4.6-2.1-4.6-4.6v-45.3C183,295.1,185.1,293,187.6,293z"/><path d="M96.1,384.5h45.3c2.5,0,4.6,2.1,4.6,4.6v45.3c0,2.5-2.1,4.6-4.6,4.6H96.1c-2.5,0-4.6-2.1-4.6-4.6v-45.3C91.5,386.6,93.6,384.5,96.1,384.5z"/><path d="M187.6,384.5h45.3c2.5,0,4.6,2.1,4.6,4.6v45.3c0,2.5-2.1,4.6-4.6,4.6h-45.3c-2.5,0-4.6-2.1-4.6-4.6v-45.3C183,386.6,185.1,384.5,187.6,384.5z"/><path d="M279.1,384.5h45.3c2.5,0,4.6,2.1,4.6,4.6v45.3c0,2.5-2.1,4.6-4.6,4.6h-45.3c-2.5,0-4.6-2.1-4.6-4.6v-45.3C274.5,386.6,276.6,384.5,279.1,384.5z"/><path d="M475.4,37h-54.9V0h-45.8v37H137.3V0H91.5v37H36.6C16.3,37,0,53.4,0,73.6v401.8C0,495.7,16.3,512,36.6,512h438.8c20.3,0,36.6-16.3,36.6-36.6V73.6C512,53.4,495.7,37,475.4,37z M461.9,461.9H50.1V164.5h411.8V461.9z"/></svg>
