<svg id="twrp-tax-fi-t-f" viewBox="0 0 100 100"><path d="M97.9,72.6l-0.1-0.1l0,0L64.2,14l0,0c-0.3-0.4-0.7-0.8-1.1-1l0,0L53,7.2l11.1,19.2l25.3,43.8l0,0l0.1,0.1c0.7,1.3,0.3,2.8-0.9,3.6l0,0L51.1,95.5l1.7,2.8c0,0.1,0.1,0.1,0.1,0.2c0.7,1.3,2.2,1.7,3.4,1l0,0L97,76.1l0,0C98.2,75.4,98.7,73.8,97.9,72.6z"/><path d="M79.8,71.3c1.3-0.7,1.7-2.3,0.9-3.6l-0.1-0.1l0,0L47.1,9.6l0,0c-0.3-0.4-0.7-0.8-1.1-1l0,0L32.2,0.7v0.1c-0.7-0.4-1.6-0.4-2.3-0.1l0,0l-0.2,0.1l0,0l0,0L3.2,15.9C2.5,16.5,2,17.3,2,18.1l0,0V34l0,0c-0.1,0.5,0,1,0.3,1.6c0,0,0,0.1,0.1,0.1l0,0l33.4,57.9c0,0.1,0.1,0.1,0.1,0.2c0.7,1.3,2.2,1.7,3.4,1l0,0L79.8,71.3L79.8,71.3z M24.4,21.8c-2.3,1.4-5.3,0.5-6.6-1.8c-1.4-2.3-0.5-5.3,1.8-6.6s5.3-0.5,6.6,1.8C27.4,17.5,26.7,20.4,24.4,21.8z"/></svg>
