<svg id="twrp-user-ji-c-ol" viewBox="0 0 24 24"><path d="M12,24C5.3,24,0,18.7,0,12S5.3,0,12,0s12,5.3,12,12S18.7,24,12,24z M12,21.6c5.3,0,9.6-4.3,9.6-9.6S17.3,2.4,12,2.4S2.4,6.7,2.4,12S6.7,21.6,12,21.6z M12,4.8c2.6,0,4.8,2.1,4.8,4.8V12c0,2.6-2.1,4.8-4.8,4.8S7.2,14.6,7.2,12V9.6C7.2,7,9.4,4.8,12,4.8z M12,7.2c-1.3,0-2.4,1.1-2.4,2.4V12c0,1.3,1.1,2.4,2.4,2.4s2.4-1.1,2.4-2.4V9.6C14.4,8.3,13.3,7.2,12,7.2z M7.1,20.3c-0.7-0.4-1.3-0.9-1.9-1.5c0.7-0.8,1.6-1.5,2.6-1.9c0.6-0.3,1.3,0,1.6,0.6c0.3,0.6,0,1.3-0.6,1.6c0,0,0,0-0.1,0C8.1,19.4,7.6,19.8,7.1,20.3L7.1,20.3z M16.8,20.3c-0.5-0.5-1-0.9-1.7-1.1c-0.6-0.2-0.9-0.9-0.7-1.5c0.2-0.6,0.9-0.9,1.5-0.7c0,0,0,0,0.1,0c1.1,0.4,2,1.1,2.7,1.9C18.2,19.4,17.5,19.9,16.8,20.3z"/></svg>
