<svg id="twrp-com-di-d-f" viewBox="0 0 20 20"><path d="M10,0c7.8,0,10,3.3,10,7.4s-2.2,7.4-10,7.4S0,11.5,0,7.4S2.2,0,10,0z M5,9.1c0.9,0,1.7-0.8,1.7-1.7S5.9,5.7,5,5.7S3.3,6.5,3.3,7.4S4.1,9.1,5,9.1z M10,9.1c0.9,0,1.7-0.8,1.7-1.7S10.9,5.7,10,5.7S8.3,6.5,8.3,7.4S9.1,9.1,10,9.1z M15,9.1c0.9,0,1.7-0.8,1.7-1.7S15.9,5.7,15,5.7s-1.7,0.8-1.7,1.7S14.1,9.1,15,9.1z M5.6,15.4c0.9,0,1.7,0.8,1.7,1.7c0,0.9-0.7,1.7-1.7,1.7s-1.7-0.8-1.7-1.7C3.9,16.2,4.6,15.4,5.6,15.4z M2.2,17.7c0.6,0,1.1,0.5,1.1,1.1S2.8,20,2.2,20s-1.1-0.5-1.1-1.1S1.6,17.7,2.2,17.7z"/></svg>
