<svg id="twrp-dcom-twrp-c2-t" viewBox="0 0 100 100"><path d="M62.3,79.2c-3.9,1-8,1.6-12.3,1.6c-5.8,0-11.4-1-16.7-3.1l-1.1-0.4l-0.9,0.7c-4.9,4-11.2,6.2-18.6,6.4c1.8-2.2,5.4-7.3,7-14l0.3-1.1l-0.8-0.8c-5.7-5.9-8.7-12.9-8.7-20.4c0-5.7,1.8-11.1,4.9-15.8l-2.9-2.9C8.7,35,6.5,41.4,6.5,48.2c0,8.1,3.2,16,9,22.3c-2.1,7.3-6.7,12.3-6.8,12.4c-0.9,1-1.1,2.4-0.6,3.6c0.5,1.2,1.7,2,3,2c8.6,0,16-2.2,21.8-6.6c5.5,2,11.2,3,17.1,3c5.5,0,10.7-0.8,15.5-2.4L62.3,79.2z M50,11.5c-6.5,0-12.6,1.2-18.2,3.4l3.1,3.1c4.6-1.6,9.7-2.5,15.1-2.5c21.8,0,39.5,14.7,39.5,32.7c0,6.6-2.4,12.8-6.5,17.9l2.8,2.8c4.8-5.9,7.6-13,7.6-20.7C93.5,28,74,11.5,50,11.5z"/><path d="M99.4,99.4C99,99.8,98.5,100,98,100s-1-0.2-1.4-0.6l-96-96c-0.8-0.8-0.8-2,0-2.8C1,0.2,1.5,0,2,0s1,0.2,1.4,0.6l96,96C100.2,97.3,100.2,98.6,99.4,99.4z"/></svg>
