<svg id="twrp-dcom-twrp-cs-dt" viewBox="0 0 100 100"><path style="fill-opacity:0.3;" d="M90,10.7v21c0,0.1-0.5,0.7-1.5,0.7h-6.1V37l-7.2-4.6h-1.6c-2-1.5-4.6-2.4-7.4-2.4H54V10.7c0-0.1,0.5-0.7,1.5-0.7h33C89.5,10,90,10.5,90,10.7z"/><path d="M98,10.7v21c0,4.2-3.2,7.7-7.6,8.5l0,3.6c0,1.5-0.9,2.9-2.2,3.6c-0.6,0.4-1.4,0.5-2.1,0.5c-0.8,0-1.6-0.2-2.3-0.6L78,43.7c0,0-0.1-4.3-0.2-4.9c-0.5-2.6-2-4.8-4.1-6.4h1.6l7.2,4.6v-4.6h6.1c1,0,1.5-0.5,1.5-0.7v-21c0-0.1-0.5-0.7-1.5-0.7h-33c-1,0-1.5,0.5-1.5,0.7V30h-8V10.7C46,5.9,50.3,2,55.5,2h33C93.7,2,98,5.9,98,10.7z"/><path style="fill-opacity:0.3;" d="M64,46.6v8.9L52.5,44h7.8C62.2,44,64,45.2,64,46.6z"/><path style="fill-opacity:0.3;" d="M53.7,79.2H32.9l-10.3,6.6l-2,1.3v-7.9c0,0-7.6,0-7.9-0.1h0c-1.5-0.3-2.8-1.4-2.8-2.5V46.6c0-1,0.8-1.9,2-2.3c0.5-0.2,1.1-0.3,1.8-0.3h4.7L53.7,79.2z"/><path d="M61.6,87.1c-0.4,0-26.3,0.1-26.3,0.1L19.4,97.3c-0.7,0.4-3.8,0.5-4.5,0.1c-1.4-0.8-2.2-2.2-2.3-3.7l0-6.5C6.7,86.7,2,82.1,2,76.6V46.6c0-4.2,2.7-7.9,6.7-9.6c0.7-0.3,1.4-0.5,2.1-0.7l7.7,7.7h-4.7c-0.6,0-1.2,0.1-1.8,0.3c-1.2,0.5-2,1.3-2,2.3v29.9c0,1.2,1.2,2.2,2.8,2.5h0c0.3,0.1,7.9,0.1,7.9,0.1v7.9l2-1.3l10.3-6.6h20.8L61.6,87.1z"/><path d="M98.1,89.6L72,63.5V46.6c0-2.2-0.7-4.2-2-5.9c-0.1-0.1-0.9-1-0.9-1.1c-0.5-0.6-1.2-1.1-1.8-1.5c0,0,0,0,0,0c-1.1-0.8-2.4-1.4-3.8-1.7c-1-0.3-2.1-0.4-3.2-0.4H44.5L10.4,1.9C9.2,0.7,7.7,0.2,6.2,0.2c-1.5,0-3.1,0.6-4.2,1.8c-2.3,2.3-2.3,6.1,0,8.5l87.7,87.7c1.2,1.2,2.7,1.8,4.2,1.8c1.5,0,3.1-0.6,4.2-1.8C100.4,95.7,100.4,91.9,98.1,89.6z M64,55.5L52.5,44h7.8c2,0,3.8,1.2,3.8,2.6V55.5z"/></svg>
