<svg id="twrp-dcom-twrp-cs2-dt" viewBox="0 0 100 100"><path style="fill-opacity:0.3;" d="M86.3,32.6l-1.6,1.6c0,0,1,3.8,1.3,4.5c-0.8-0.4-4-2.8-4-2.8l-2.1,0.8c-2.5,0.9-5.1,1.4-7.8,1.4c-9.9,0-18-6.3-18-14s8.1-14,18-14s18,6.3,18,14C90,28,88,30.8,86.3,32.6z"/><path d="M93.6,36.3C96.5,32.7,98,28.4,98,24C98,11.9,86.3,2,72,2s-26,9.9-26,22c0,2.6,0.5,5,1.5,7.3c1.7,0.2,3.4,0.6,5,1c6.6,1.8,12.4,5.1,16.7,9.6c1.2,1.3,2.4,2.7,3.3,4.1c2.8,0,5.5-0.4,8.1-1.2c3.3,2.1,7.4,3.1,12,3.1c1.9,0,3.6-1.1,4.3-2.8c0.8-1.7,0.4-3.7-0.9-5.1C96,40.1,94.6,38.6,93.6,36.3z M86.3,32.6l-1.6,1.6c0,0,1,3.8,1.3,4.5c-0.8-0.4-4-2.8-4-2.8l-2.1,0.8c-2.5,0.9-5.1,1.4-7.8,1.4c-9.9,0-18-6.3-18-14s8.1-14,18-14s18,6.3,18,14C90,28,88,30.8,86.3,32.6z"/><path style="fill-opacity:0.3;" d="M55.7,81.2c-2.8,2.1-6.1,3.8-9.9,4.8c-2.8,0.8-5.8,1.2-8.8,1.2c-3.6,0-7.1-0.6-10.4-1.7c-0.4-0.1-3.3-1.2-3.3-1.2l-1.8,1.5c-1.7,1.4-3.6,2.4-5.8,3.1c-0.5,0.2-0.9,0.3-1.4,0.4c0.1-0.1,2-4.2,2.5-6.6l0.5-2.2L15.8,79C12,75.1,10,70.5,10,65.6c0-2,0.3-4,1-5.9c1.4-3.9,4-7.3,7.7-10c1.1-0.8,2.2-1.5,3.4-2.1L55.7,81.2z"/><path d="M55.7,81.2c-2.8,2.1-6.1,3.8-9.9,4.8c-2.8,0.8-5.8,1.2-8.8,1.2c-3.6,0-7.1-0.6-10.4-1.7c-0.4-0.1-3.3-1.2-3.3-1.2l-1.8,1.5c-1.7,1.4-3.6,2.4-5.8,3.1c-0.5,0.2-0.9,0.3-1.4,0.4c0.1-0.1,2-4.2,2.5-6.6l0.5-2.2L15.8,79C12,75.1,10,70.5,10,65.6c0-2,0.3-4,1-5.9c1.4-3.9,4-7.3,7.7-10c1.1-0.8,2.2-1.5,3.4-2.1l-5.8-5.8c-1.2,0.7-2.3,1.5-3.3,2.4C6.2,49.6,2,57.2,2,65.6c0,6.1,2.3,12.1,6.4,17.1c-1.5,4.1-4,6.8-4,6.8C3,91,2.7,93.1,3.4,95C4.2,96.8,6,98,8,98c6.5,0,12.1-1.5,16.6-4.6c4,1.3,8.1,1.9,12.3,1.9c9.5,0,18.1-3.2,24.4-8.4L55.7,81.2z"/><path d="M98.1,98.1c-1.2,1.2-2.7,1.8-4.2,1.8c-1.5,0-3.1-0.6-4.2-1.8L1.9,10.4c-2.3-2.3-2.3-6.1,0-8.5c1.2-1.2,2.7-1.8,4.2-1.8c1.5,0,3.1,0.6,4.2,1.8l34.9,34.9c2.9,0.6,5.6,1.5,8.1,2.6c2.7,1.2,5.2,2.7,7.4,4.5c6.3,4.9,10.4,11.8,11.1,19.5l26.2,26.2C100.4,91.9,100.4,95.7,98.1,98.1z"/></svg>
