<svg id="twrp-dcom-twrp-cs2-f" viewBox="0 0 100 100"><path d="M96.9,46.6c0.2,0.2,0.3,0.6,0.2,0.9c-0.1,0.3-0.4,0.5-0.8,0.5c-6.7,0-10.9-2.3-13.4-4.3c-3.2,1.3-6.8,2-10.6,2c-5.2-7.5-14.1-12.9-24.7-14.3c-1-2.4-1.6-4.9-1.6-7.5C46,11.8,57.6,2,72,2s26,9.8,26,21.8c0,5.2-2.2,10-5.8,13.7C93.5,42.9,96.8,46.5,96.9,46.6z"/><path d="M61.2,86.7C55,91.8,46.4,94.9,37,94.9c-5.2,0-10.2-1-14.7-2.7c-3.4,2.8-9,5.8-18,5.8c-0.4,0-0.8-0.2-1-0.7c-0.2-0.4-0.1-0.9,0.2-1.2c0.1-0.1,4.6-5,6.3-12.1C4.9,78.9,2,72.5,2,65.5c0-8.4,4.2-16,10.9-21.3c1.1-0.9,2.2-1.7,3.4-2.4L61.2,86.7z"/><path d="M98.8,96L96,98.8c-1.6,1.6-4.1,1.6-5.7,0L1.2,9.7c-1.6-1.6-1.6-4.1,0-5.7L4,1.2c1.6-1.6,4.1-1.6,5.6,0l35.7,35.7c3.2,0.7,6.2,1.7,9,3c2,1,3.9,2.1,5.6,3.3c6.8,5,11.3,12.2,12,20.2l26.9,26.9C100.4,91.9,100.4,94.4,98.8,96z"/></svg>
