<svg id="twrp-dcom-twrp-cs-ol" viewBox="0 0 100 100"><path d="M88.5,2h-33C50.3,2,46,5.9,46,10.7V30h8V10.7c0-0.1,0.5-0.7,1.5-0.7h33c1,0,1.5,0.5,1.5,0.7v21c0,0.1-0.5,0.7-1.5,0.7h-6.1V37l-7.2-4.6h-1.6c2.6,2,4.3,4.9,4.3,8.2v3l4.7,3c0,0,2.6,1.3,3.4,1.3c0.7,0,1.4-0.2,2.1-0.5c1.3-0.7,2.2-2.1,2.2-3.6l0-3.6c4.3-0.8,7.6-4.3,7.6-8.5v-21C98,5.9,93.7,2,88.5,2z"/><path d="M61.6,87.1c-0.4,0-26.3,0.1-26.3,0.1L19.4,97.3c-0.7,0.4-3.8,0.5-4.5,0.1c-1.4-0.8-2.2-2.2-2.3-3.7l0-6.5C6.7,86.7,2,82.1,2,76.6V46.6c0-4.2,2.7-7.9,6.7-9.6c0.7-0.3,1.4-0.5,2.1-0.7l7.7,7.7h-4.7c-0.6,0-1.2,0.1-1.8,0.3c-1.2,0.5-2,1.3-2,2.3v29.9c0,1.2,1.2,2.2,2.8,2.5c0.3,0.1,7.9,0.1,7.9,0.1v7.9l2-1.3l10.3-6.6h20.8L61.6,87.1z"/><path d="M98.1,89.6L72,63.5V46.6c0-2-2.2-6.2-2.2-6.2c-0.2-0.3-0.5-0.6-0.7-0.8c-0.5-0.6-1.1-1.1-1.8-1.5c-2-1.3-4.4-2.1-7-2.1H44.5L10.4,1.9C9.2,0.7,7.7,0.2,6.2,0.2c-1.5,0-3.1,0.6-4.2,1.8c-2.3,2.3-2.3,6.1,0,8.5l87.7,87.7c1.2,1.2,2.7,1.8,4.2,1.8c1.5,0,3.1-0.6,4.2-1.8C100.4,95.7,100.4,91.9,98.1,89.6z M64,55.5L52.5,44h7.8c2,0,3.8,1.2,3.8,2.6V55.5z"/></svg>
