<svg id="twrp-dcom-twrp-c2-f" viewBox="0 0 100 100"><path d="M58.5,84c-2.8,0.5-5.6,0.7-8.5,0.7c-6.5,0-12.7-1.2-18.2-3.4c-4.2,3.5-11.2,7.3-22.4,7.3c-0.5,0-1-0.3-1.2-0.8c-0.2-0.5-0.1-1.1,0.2-1.5c0.1-0.1,5.7-6.2,7.9-15.1c-6-6.3-9.7-14.3-9.7-23c0-4.6,1-9.1,2.9-13.2L58.5,84z"/><path d="M98.8,96L96,98.8c-1.6,1.6-4.1,1.6-5.7,0L1.2,9.7c-1.6-1.6-1.6-4.1,0-5.7L4,1.2c1.6-1.6,4.1-1.6,5.6,0L26,17.5c6.9-3.8,15.1-6,24-6c24,0,43.5,16.4,43.5,36.6c0,9.7-4.5,18.5-11.8,25.1l17.2,17.2C100.4,91.9,100.4,94.4,98.8,96z"/></svg>
