<svg id="twrp-dcom-twrp-cs2-ol" viewBox="0 0 100 100"><path d="M93.6,36.3c2.8-3.6,4.4-7.9,4.4-12.3C98,11.9,86.3,2,72,2s-26,9.9-26,22c0,2.6,0.5,5,1.5,7.3c10.7,1.4,19.9,7,25,14.7c2.8,0,5.5-0.4,8.1-1.2c3.3,2.1,7.4,3.1,12,3.1c1.9,0,3.6-1.1,4.3-2.8c0.8-1.7,0.4-3.7-0.9-5.1C96,40.1,94.6,38.6,93.6,36.3z M86.3,32.6l-1.6,1.6c0,0,1,3.8,1.3,4.5c-0.8-0.4-4-2.8-4-2.8l-2.1,0.8c-2.5,0.9-5.1,1.4-7.8,1.4c-9.9,0-18-6.3-18-14s8.1-14,18-14s18,6.3,18,14C90,28,88,30.9,86.3,32.6z"/><path d="M61.4,86.9c-6.3,5.2-14.9,8.4-24.4,8.4c-4.2,0-8.4-0.6-12.3-1.9C20.1,96.5,14.5,98,8,98c-2,0-3.8-1.2-4.6-3c-0.8-1.8-0.4-3.9,1-5.4c0,0,2.5-2.8,4-6.8c-4.2-5-6.4-11-6.4-17.1c0-8.5,4.2-16.1,10.9-21.5l3.3-2.4l5.8,5.8c-1.2,0.6-2.3,1.4-3.4,2.1c-3.6,2.7-6.3,6.1-7.7,10c-0.7,1.9-1,3.8-1,5.9c0,4.9,2,9.5,5.8,13.3l1.5,1.6l-0.5,2.2c-0.6,2.4-1.4,4.5-2.4,6.2c-0.1,0.1-0.1,0.2-0.2,0.3c0.5-0.1,1-0.2,1.4-0.4c2.2-0.7,4.1-1.7,5.8-3.1l1.8-1.5c0,0,2.9,1.1,3.3,1.2c3.3,1.1,6.8,1.7,10.4,1.7c3.1,0,6.1-0.4,8.8-1.2c3.7-1,7.1-2.7,9.9-4.9L61.4,86.9z"/><path d="M98.1,98.1c-1.2,1.2-2.7,1.8-4.2,1.8c-1.5,0-3.1-0.6-4.2-1.8L1.9,10.4c-2.3-2.3-2.3-6.1,0-8.5c1.2-1.2,2.7-1.8,4.2-1.8c1.5,0,3.1,0.6,4.2,1.8l34.9,34.9c2.9,0.6,5.6,1.5,8.1,2.6c2.7,1.2,5.2,2.7,7.4,4.5c6.3,4.9,10.4,11.8,11.1,19.5l26.2,26.2C100.4,91.9,100.4,95.7,98.1,98.1z"/></svg>
