<svg id="twrp-tax-ii-fo-ol" viewBox="0 0 512 512"><path style="fill:none;stroke:currentColor;stroke-width:32;stroke-linecap:round;stroke-linejoin:round;" d="M50.3,187.3V110c0-23.8,19.2-43,42.9-43h81.3c8.5,0,16.7,2.5,23.8,7.2l29.8,19.9c7,4.7,15.3,7.2,23.8,7.2h167c23.7,0,42.9,19.2,42.9,43v43"/><path style="fill:none;stroke:currentColor;stroke-width:32;stroke-linecap:round;stroke-linejoin:round" d="M495.9,224.3L478.5,402c0,23.7-19.1,42.9-42.8,43H76.3c-23.6,0-42.8-19.2-42.8-43L16.1,224.3c-1.5-18.9,12.6-35.5,31.4-37c0.9-0.1,1.8-0.1,2.7-0.1h411.5c18.9,0.1,34.2,15.5,34.2,34.5C496,222.6,496,223.5,495.9,224.3z"/></svg>
