<svg id="twrp-tax-ii-it-ol" viewBox="0 0 512 512"><path d="M475.4,36.6V0H292.6L0,329.1L182.9,512l26.8-27.3l28.1,27.3L512,201.1V36.6H475.4z M182.9,486.1l-157.3-157L300.1,18.3h157v18.3V55v120.4L209.6,458.8l-13,13L182.9,486.1z M493.7,193.5l-256,292.6l-15.1-14.4l252.8-288.9v-128h18.3v138.8H493.7z"/><path d="M365.7,146.3c20.2,0,36.6-16.4,36.6-36.6s-16.4-36.6-36.6-36.6s-36.6,16.4-36.6,36.6S345.5,146.3,365.7,146.3z M365.7,91.4c10.1,0,18.3,8.2,18.3,18.3s-8.2,18.3-18.3,18.3s-18.3-8.2-18.3-18.3S355.6,91.4,365.7,91.4z"/></svg>
