<svg id="twrp-tax-ii-t-f" viewBox="0 0 512 512"><path d="M448,183.7V60.8c0.1-24.7-19.9-44.7-44.5-44.8c-0.1,0-0.1,0-0.2,0H280.4c-8.1,0-15.8,3.2-21.5,8.9L13.1,270.4c-17.5,17.5-17.5,45.8,0,63.3l117,116.9c17.5,17.4,45.8,17.4,63.3,0l245.7-245.5C444.8,199.5,448,191.8,448,183.7z M352,143.9c-17.7,0-32-14.3-32-32s14.3-32,32-32c17.7,0,32,14.3,32,32S369.7,143.9,352,143.9z"/><path d="M496,64c-8.8,0-16,7.2-16,16v127.3L218.7,468.4c-6.4,6.1-6.7,16.2-0.6,22.6s16.2,6.7,22.6,0.6c0.2-0.2,0.4-0.4,0.6-0.6l262-261.8c5.6-5.7,8.8-13.3,8.7-21.3V80C512,71.1,504.8,64,496,64z"/></svg>
