<svg id="twrp-com-ii-2-f" viewBox="0 0 512 512"><path d="M50.8,512c-16.2-0.1-29.3-13.3-29.3-29.4c0.1-2.9,0.5-5.9,1.4-8.7L44,397.7c0.9-2.8-0.1-5.7-1.4-7.9l-0.2-0.5c-0.1-0.1-0.5-0.7-0.8-1.2c-0.3-0.4-0.7-0.9-1-1.4l-0.2-0.3C13.7,346.2-0.5,299-0.5,250.7C-0.7,184.9,25,122.7,72.2,75.6C120.9,26.8,186.1,0,255.8,0C315,0,372.4,20,418.7,56.9c45.2,36.3,76.6,86.9,88.4,142.5c3.6,16.9,5.5,34.2,5.5,51.5c0,67.4-25.9,130.6-73,178.1c-47.5,48-111.3,74.3-179.6,74.3c-24,0-54.8-6.2-69.6-10.3c-17.7-5-34.7-11.4-36.5-12.1c-1.9-0.7-4.1-1.1-6.2-1.1c-2.2,0-4.6,0.4-6.7,1.3l-1,0.4l-77.3,27.8C59,511,54.9,511.9,50.8,512z M63,397.7L63,397.7z"/></svg>
