<svg id="twrp-com-ii-2-ol" viewBox="0 0 512 512"><path style="fill:none;stroke:currentColor;stroke-width:32;stroke-linecap:round;stroke-miterlimit:10;" d="M61.6,398.9c1.3-5-1.6-12-4.6-17.2c-0.9-1.5-1.8-3-3-4.4C29.3,339.7,16,295.6,16,250.5C15.7,121,123.1,16,255.9,16c115.8,0,212.4,80.2,235,186.7c3.4,15.8,5.1,31.9,5.1,48.1c0,129.6-103.2,236.4-236,236.4c-21.1,0-49.6-5.3-65.1-9.7c-15.5-4.4-31-10.1-35-11.6c-4.1-1.5-8.5-2.3-12.9-2.3c-4.8,0-9.5,0.9-14,2.8l-78.2,28.3c-1.7,0.7-3.6,1.2-5.4,1.4c-6.1,0-11-5-11-11.1v-0.1c0.1-1.3,0.3-2.6,0.7-3.8L61.6,398.9z"/></svg>
