<svg id="twrp-com-ii-c-ol" viewBox="0 0 512 512"><path style="fill:none;stroke:currentColor;stroke-width:32;stroke-linecap:round;stroke-miterlimit:10;" d="M457.9,330.6c-1.1-4.2,1.4-9.9,3.8-14.1c0.7-1.2,1.5-2.5,2.5-3.6C484.9,282,496,245.8,496,208.7C496.3,102.3,406.6,16,295.6,16C198.8,16,118,81.9,99,169.3c-2.9,13-4.3,26.2-4.3,39.4c0,106.5,86.3,195.2,197.2,195.2c17.7,0,41.5-5.3,54.4-8.9c13.1-3.6,25.9-8.3,29.3-9.6c3.5-1.3,7-1.9,10.7-1.9c4,0,8,0.8,11.6,2.3l65.4,23.2c1.4,0.6,3,1,4.5,1.1c5.1,0,9.2-4.1,9.2-9.2c-0.1-1-0.3-2.1-0.6-3.2L457.9,330.6z"/><path style="fill:none;stroke:currentColor;stroke-width:32;stroke-linecap:round;stroke-miterlimit:10;" d="M37.3,228.3c-30.8,55.5-28,123.5,7.4,176.2c2.7,4,4.2,7.1,3.7,9.2c-0.5,2-13.8,71.4-13.8,71.4c-0.6,3.3,0.5,6.7,3.2,8.9c1.7,1.3,3.8,2,5.9,2c1.1,0,2.3-0.2,3.4-0.7l64.8-25.4c4.5-1.7,9.4-1.6,13.9,0.2c21.8,8.5,46,13.9,70.1,13.9c32.5,0,64.3-8.5,92.4-24.8"/></svg>
