<svg id="twrp-com-ii-t2-ol" viewBox="0 0 512 512"><path style="fill:none;stroke:currentColor;stroke-width:32;stroke-linecap:round;stroke-miterlimit:10;" d="M61.5,398.9c1.4-5-1.6-12-4.6-17.2c-0.9-1.5-1.8-3-3-4.4c-24.8-37.7-38-81.8-38-126.9C15.6,121,122.9,16,255.8,16c115.8,0,212.5,80.1,235.1,186.7c3.4,15.8,5.1,31.9,5.1,48.1c0,129.6-103.3,236.4-236.1,236.4c-21.1,0-49.6-5.3-65.2-9.7s-31-10.1-35-11.6c-4.1-1.5-8.5-2.3-12.9-2.3c-4.8,0-9.5,0.9-14,2.8l-78.3,28.3c-1.7,0.7-3.6,1.2-5.4,1.4c-6.1,0-11-5-11-11.1v-0.1c0.1-1.3,0.3-2.6,0.7-3.8L61.5,398.9z"/><ellipse cx="145.2" cy="255.9" rx="37" ry="37"/><ellipse cx="256" cy="255.9" rx="37" ry="37"/><ellipse cx="366.8" cy="255.9" rx="37" ry="37"/></svg>
