<svg id="twrp-com-ii-t-f" viewBox="0 0 512 512"><path d="M429.6,18.5H82.2C36.8,18.5,0,55.3,0,100.6v219.3c0,45.4,36.8,82.1,82.3,82.2h27.4v73.1c0,10.1,8.2,18.3,18.3,18.3c4.2,0,8.4-1.5,11.7-4.2l104.5-87.1h185.4c45.4,0,82.2-36.8,82.3-82.2V100.6C511.8,55.3,475,18.5,429.6,18.5z M146.2,246.9c-20.2,0-36.6-16.4-36.6-36.6s16.4-36.6,36.6-36.6s36.6,16.4,36.6,36.6S166.4,246.9,146.2,246.9z M255.9,246.9c-20.2,0-36.6-16.4-36.6-36.6s16.4-36.6,36.6-36.6s36.6,16.4,36.6,36.6S276.1,246.9,255.9,246.9z M365.6,246.9c-20.2,0-36.6-16.4-36.6-36.6s16.4-36.6,36.6-36.6c20.2,0,36.6,16.4,36.6,36.6S385.8,246.9,365.6,246.9z"/></svg>
