<svg id="twrp-com-ii-ios-ol" viewBox="0 0 512 512"><path d="M256.2,62.5c129.4,0,234.7,83.3,234.7,185.8c0,48.2-23.5,93-66,126.1c-43.8,34.1-103.2,52.8-167.5,52.8c-38.5,0-68-4-93-12.5c-0.8-0.3-1.8-0.6-2.7-0.9c-0.4-0.1-0.8-0.3-1-0.3c-6.3-1.9-13-2.8-19.6-2.8c-7.5,0-14.8,1.2-21.7,3.5l0,0l-0.4,0.1c-0.8,0.3-11.9,4.4-14.6,5.8l0,0L51.4,443c18.4-59,18.4-60.2,18.4-64c0-9.6-2.9-18.9-8.4-27.1c-0.6-0.9-1.4-1.9-2.1-2.8c-0.9-1.2-1.8-2.3-2.4-3.1c-23.2-29.5-35.5-63.2-35.5-98C21.4,145.8,126.8,62.5,256.2,62.5 M256.2,41C114.6,41,0,133.8,0,248.2c0,41.2,14.9,79.6,40.5,111.9c1.1,1.2,3.9,5.2,4.8,6.6c0,0-1.4-2.1-1.5-2.5l0,0l0,0l0,0c3,4.4,4.8,9.6,4.8,15c0,1.9-23.9,77.9-23.9,77.9l0,0c-1.8,5.9,2.8,12,10.1,13.5c1,0.3,2.1,0.3,3.2,0.3c1.8,0,3.3-0.3,4.9-0.6l2.1-0.8l67.5-29.6c1.1-0.5,12-4.7,13.4-5.3l0.8-0.3c0,0-0.1,0-0.8,0.3c4.5-1.6,9.6-2.4,14.9-2.4c4.8,0,9.5,0.6,13.8,2c0.1,0,0.3,0,0.3,0.1c0.6,0.3,1.4,0.4,2,0.6c30.8,10.6,64.6,13.9,100.2,13.9c141.5,0,254.8-86,254.8-200.5C512.3,133.8,397.6,41,256.2,41L256.2,41z"/></svg>
