<svg id="twrp-cal-ji-2-f" viewBox="0 0 24 24"><path d="M20.1,3c1.9,0,3.4,1.7,3.4,3.9v12.8c0,2.1-1.6,3.9-3.4,3.9H4c-1.9,0-3.5-1.7-3.5-3.9V6.9C0.5,4.8,2.1,3,4,3v2.5C4,7,5,8,6.3,8s2.3-1.1,2.3-2.5V3h1.1v2.5C9.7,7,10.7,8,12,8s2.3-1.1,2.3-2.5V3h1.1v2.5c0,1.5,1,2.5,2.3,2.5s2.3-1.1,2.3-2.5V3z M4,10.7v2.5h2.3v-2.5C6.3,10.7,4,10.7,4,10.7z M4,15.9v2.5h2.3v-2.5C6.3,15.9,4,15.9,4,15.9z M17.8,15.9v2.5h2.3v-2.5C20.1,15.9,17.8,15.9,17.8,15.9z M17.8,10.7v2.5h2.3v-2.5C20.1,10.7,17.8,10.7,17.8,10.7z M8.6,10.7v2.5h2.3v-2.5C10.8,10.7,8.6,10.7,8.6,10.7z M13.2,10.7v2.5h2.3v-2.5C15.4,10.7,13.2,10.7,13.2,10.7z M13.2,15.9v2.5h2.3v-2.5C15.4,15.9,13.2,15.9,13.2,15.9z M8.6,15.9v2.5h2.3v-2.5C10.8,15.9,8.6,15.9,8.6,15.9z M6.3,0.5c0.6,0,1.2,0.5,1.2,1.3v3.9c0,0.7-0.5,1.3-1.2,1.3S5.1,6.4,5.1,5.6V1.8C5.1,1,5.6,0.5,6.3,0.5z M17.8,0.5c0.6,0,1.1,0.5,1.1,1.3v3.9c0,0.7-0.5,1.3-1.1,1.3s-1.1-0.5-1.1-1.3V1.8C16.6,1,17.1,0.5,17.8,0.5z M12,0.5c0.6,0,1.2,0.5,1.2,1.3v3.9c0,0.7-0.5,1.3-1.2,1.3s-1.2-0.5-1.2-1.3V1.8C10.8,1,11.4,0.5,12,0.5z"/></svg>
