<svg id="twrp-cal-ji-ol" viewBox="0 0 24 24"><path d="M21.2,9.5V6.9c0-0.7-0.5-1.3-1.1-1.3h-1.2v1.3c0,0.7-0.5,1.3-1.1,1.3s-1.1-0.5-1.1-1.3V5.6H7.4v1.3c0,0.7-0.5,1.3-1.2,1.3S5.1,7.6,5.1,6.9V5.6H4c-0.6,0-1.2,0.5-1.2,1.3v2.5h18.4V9.5z M21.2,12H2.8v7.6c0,0.7,0.5,1.3,1.2,1.3h16.1c0.6,0,1.1-0.5,1.1-1.3C21.2,19.6,21.2,12,21.2,12z M18.9,3h1.2c1.9,0,3.4,1.7,3.4,3.9v12.8c0,2.1-1.6,3.9-3.4,3.9H4c-1.9,0-3.5-1.7-3.5-3.9V6.9C0.5,4.8,2.1,3,4,3h1.1V1.8c0-0.7,0.5-1.3,1.2-1.3S7.4,1,7.4,1.8V3h9.2V1.8c0-0.7,0.5-1.3,1.1-1.3s1.1,0.5,1.1,1.3V3z"/></svg>
