<svg id="twrp-tax-goo-h-ol" viewBox="0 0 24 24"><path d="M23.3,11.5L12.5,0.7c-0.4-0.4-1-0.7-1.7-0.7H2.4C1.1,0,0,1.1,0,2.4v8.4c0,0.7,0.3,1.3,0.7,1.7l10.8,10.8c0.4,0.4,1,0.7,1.7,0.7c0.7,0,1.3-0.3,1.7-0.7l8.4-8.4c0.4-0.4,0.7-1,0.7-1.7C24,12.5,23.7,11.9,23.3,11.5z M13.2,21.6L2.4,10.8V2.4h8.4v0l10.8,10.8L13.2,21.6z"/><circle cx="5.4" cy="5.4" r="1.8"/><path d="M8.3,12.7c0,0.7,0.3,1.3,0.7,1.7l4.2,4.2l4.2-4.2c0.4-0.4,0.7-1.1,0.7-1.7c0-1.4-1.1-2.5-2.5-2.5c-0.7,0-1.3,0.3-1.7,0.7l-0.7,0.7l-0.7-0.7c-0.4-0.5-1.1-0.7-1.7-0.7C9.4,10.2,8.3,11.3,8.3,12.7z"/></svg>
