<svg id="twrp-tax-goo-dt" viewBox="0 0 24 24"><path style="opacity:0.3;" d="M10.8,2.4H2.4v8.4l10.8,10.8l8.4-8.4L10.8,2.4z M5.4,7.2c-1,0-1.8-0.8-1.8-1.8s0.8-1.8,1.8-1.8s1.8,0.8,1.8,1.8S6.4,7.2,5.4,7.2z"/><path d="M12.5,0.7c-0.4-0.4-1-0.7-1.7-0.7H2.4C1.1,0,0,1.1,0,2.4v8.4c0,0.7,0.3,1.3,0.7,1.7l10.8,10.8c0.4,0.4,1,0.7,1.7,0.7c0.7,0,1.3-0.3,1.7-0.7l8.4-8.4c0.4-0.4,0.7-1,0.7-1.7c0-0.7-0.3-1.3-0.7-1.7L12.5,0.7z M13.2,21.6L2.4,10.8V2.4h8.4v0l10.8,10.8L13.2,21.6z"/><circle cx="5.4" cy="5.4" r="1.8"/></svg>
