<svg id="twrp-tax-ti-ol" viewBox="0 0 24 24"><path d="M8,2.3c1.5,0,2.9,0.6,4,1.7l4,4l5.7,5.7l-8,8l-6.3-6.3C7.4,15.5,4,12,4,12C1.7,9.8,1.7,6.2,4,4C5.1,2.8,6.5,2.3,8,2.3 M8,0C5.9,0,3.9,0.8,2.3,2.3C0.8,3.9,0,5.9,0,8s0.8,4.1,2.3,5.7l3.4,3.4c0.1,0.1,0.3,0.2,0.4,0.3l5.9,5.9c0.4,0.4,1,0.7,1.6,0.7s1.2-0.2,1.6-0.7l8-8c0.9-0.9,0.9-2.3,0-3.2l-5.7-5.7l-3.9-4C12.2,0.8,10.2,0,8,0z M8,6.3c0.9,0,1.7,0.8,1.7,1.7S8.9,9.7,8,9.7S6.3,8.9,6.3,8S7.1,6.3,8,6.3 M8,5.1C6.4,5.1,5.1,6.4,5.1,8s1.3,2.9,2.9,2.9S11,9.6,11,8S9.7,5.1,8,5.1z"/></svg>
