<svg id="twrp-tax-ti-t-ol" viewBox="0 0 24 24"><path d="M22.4,9l-7.1-6.8C13.8,0.8,11.9,0,9.8,0s-4,0.8-5.4,2.1C2.8,3.6,2,5.6,2.1,7.7C1.4,8.8,1,10.1,1,11.5c0,2,0.8,3.8,2.3,5.2l3.4,3.1l3.8,3.6c0.4,0.4,1,0.6,1.6,0.6s1.1-0.2,1.6-0.6l7.7-7.3c0.9-0.8,0.9-2.1,0-2.9L21.2,13l1.2-1.1C23.2,11.1,23.2,9.8,22.4,9z M12,21.9l-3.8-3.6l-3.3-3.1c-2.1-2-2.1-5.3,0-7.4c1.1-1,2.5-1.5,3.9-1.5s2.8,0.5,3.9,1.5l7.1,6.8C19.7,14.6,12,21.9,12,21.9z M14.2,6.3c-1.5-1.4-3.4-2.1-5.5-2.1c-1.4,0-2.7,0.4-3.9,1C5,4.6,5.4,4.1,5.9,3.6c1.1-1,2.5-1.5,3.9-1.5s2.8,0.5,3.9,1.5l7.1,6.8l-1.2,1.1L14.2,6.3z M8.7,9.9c0.9,0,1.6,0.7,1.6,1.6c0,0.9-0.7,1.6-1.6,1.6S7,12.3,7,11.5C7,10.6,7.8,9.9,8.7,9.9 M8.7,8.9c-1.5,0-2.8,1.2-2.8,2.6c0,1.4,1.2,2.6,2.8,2.6s2.8-1.2,2.8-2.6C11.4,10,10.2,8.9,8.7,8.9z"/></svg>
