<svg id="twrp-views-ci-c-f" viewBox="0 0 32 25"><path d="M0.265,18.408c-0.387,0.211-0.316,5.902,0,6.324s6.009,0.281,6.325,0c0.316-0.28,0.246-5.902,0-6.324C6.344,17.986,0.651,18.197,0.265,18.408z"/><path d="M8.698,10.146c-0.316,0.287-0.316,13.799,0,14.375c0.316,0.576,6.009,0.287,6.326,0c0.316-0.287,0.246-13.896,0-14.375C14.778,9.666,9.015,9.857,8.698,10.146z"/><path d="M25.463,10.146c-0.316,0.287-0.316,13.799,0,14.375s6.01,0.287,6.326,0s0.246-13.896,0-14.375C31.542,9.666,25.779,9.857,25.463,10.146z"/><path d="M17.132,0.391c-0.315,0.461-0.315,23.643,0,24.218c0.316,0.578,5.938,0.463,6.325,0c0.387-0.461,0.176-23.644,0-24.218C23.281-0.185,17.449-0.071,17.132,0.391z"/></svg>
