<svg id="twrp-views-ci-c2-f" viewBox="0 0 32 30.146"><path d="M0.265,23.555c-0.387,0.211-0.316,5.901,0,6.323s6.009,0.281,6.325,0c0.316-0.279,0.246-5.901,0-6.323C6.344,23.133,0.651,23.344,0.265,23.555z"/><path d="M8.698,15.292c-0.316,0.287-0.316,13.8,0,14.375c0.316,0.576,6.009,0.288,6.326,0c0.316-0.287,0.246-13.896,0-14.375C14.778,14.813,9.015,15.004,8.698,15.292z"/><path d="M17.132,5.537c-0.315,0.461-0.315,23.645,0,24.219c0.316,0.577,5.938,0.462,6.325,0c0.387-0.461,0.176-23.643,0-24.219S17.449,5.075,17.132,5.537z"/><path d="M31.893,0.211c-0.142-0.229-5.938-0.327-6.326,0c-0.387,0.328-0.256,29.067,0,29.533c0.254,0.465,6.177,0.191,6.326,0C32.041,29.552,32.032,0.444,31.893,0.211z"/></svg>
