<svg id="twrp-com-ci-f" viewBox="0 0 32 31.965"><path d="M30.902,0.151c-9.09-1.363-29.323,6.872-30.106,8.18c-2.387,3.977,1.249,17.838,2.367,18.632c0.406,0.29,3.769,0.098,7.974-0.347c1.03,2.213,2.659,5.421,3.405,5.348c0.727-0.073,2.661-3.678,3.962-6.269c5.405-0.778,10.37-1.736,11.264-2.48C32.085,21.279,32.822,0.439,30.902,0.151z M8.217,9.934l17.516-3.87l-0.088,2.751L8.116,12.851L8.217,9.934z M24.473,19.898L8.14,23.658l-0.297-2.824l17.031-3.764L24.473,19.898z M28.225,13.628L4.162,19.167l0.101-2.952l24.055-5.313L28.225,13.628z"/></svg>
