<svg id="twrp-com-ji-c-ol" viewBox="0 0 24 24"><path d="M4.7,22.2c-0.5,0.4-1.2,0.4-1.6-0.1c-0.2-0.2-0.3-0.5-0.3-0.7v-2.6c-1.3,0-2.3-1-2.3-2.3v-8c0-1.3,1-2.3,2.3-2.3h12.6c1.3,0,2.3,1,2.3,2.3v8c0,1.3-1,2.3-2.3,2.3H9.7C9.7,18.8,4.7,22.2,4.7,22.2z M5.7,18.6c0.1,0,0.2,0,0.3-0.1l2.7-1.9c0.2-0.1,0.4-0.2,0.7-0.2h5c0.6,0,1.1-0.5,1.1-1.1V9.6c0-0.6-0.5-1.2-1.1-1.2H4c-0.6,0-1.2,0.5-1.2,1.2v5.8c0,0.6,0.5,1.1,1.2,1.1c0.5,0,0.8,0.1,1,0.3c0.1,0.2,0.2,0.4,0.2,0.9c0,0.1,0,0.2,0,0.4C5.1,18.4,5.4,18.6,5.7,18.6C5.7,18.6,5.7,18.6,5.7,18.6z M18.9,13c0,0.1,0,0.3,0,0.4V13c0-0.5,0-0.8,0.2-0.9c0.2-0.2,0.5-0.2,1-0.3c0.7,0,1.2-0.5,1.2-1.1V5c0-0.6-0.5-1.2-1.2-1.2H9.7C9.1,3.8,8.6,4.3,8.6,5H6.3V3.8c0-1.3,1-2.3,2.3-2.3h12.7c1.3,0,2.3,1,2.3,2.3v8c0,1.3-1,2.3-2.3,2.3v2.6c0,0.6-0.5,1.1-1.2,1.1c-0.3,0-0.5-0.1-0.7-0.3l-0.4-0.3V13L18.9,13z"/></svg>
