<svg id="twrp-com-ji-t2-ol" viewBox="0 0 24 24"><path d="M13.2,18.9c-0.2,0-1.9,1.5-5,4.3c-0.5,0.4-1.2,0.4-1.6-0.1c-0.2-0.2-0.3-0.5-0.3-0.8c0-2.7,0-4.3,0-4.6c0-0.2,0-0.3,0-0.3c-2.6-1.7-4.6-4.5-4.6-7.6c0-5.1,4.6-9.2,10.4-9.2s10.4,4.1,10.4,9.2C22.4,14.4,18.3,18.3,13.2,18.9z M8.6,19.7c3.1-2.8,3.5-3.1,4.4-3.1c4.1-0.4,7.1-3.4,7.1-6.9c0-3.7-3.5-6.9-8.1-6.9S3.9,6,3.9,9.7c0,2.2,1.4,4.3,3.5,5.7c0.9,0.6,1.1,1.3,1.1,2c0,0.1,0,0.1,0,0.2C8.6,18,8.6,18.7,8.6,19.7L8.6,19.7z M15.5,12c-1.3,0-2.3-1-2.3-2.3s1-2.3,2.3-2.3s2.3,1,2.3,2.3S16.7,12,15.5,12z M8.5,12c-1.3,0-2.3-1-2.3-2.3s1-2.3,2.3-2.3s2.3,1,2.3,2.3S9.8,12,8.5,12z"/></svg>
