<svg id="twrp-com-ji-t-ol" viewBox="0 0 24 24"><path d="M4,1H20c1.9,0,3.5,1.6,3.5,3.5v9.3c0,1.9-1.5,3.5-3.5,3.5h-8l-7.4,5.6c-0.5,0.4-1.2,0.3-1.6-0.2c-0.1-0.2-0.2-0.4-0.2-0.7v-4.6c-1.3,0-2.3-1-2.3-2.3V4.5C0.5,2.6,2,1,4,1z M11.3,14.9H20c0.6,0,1.2-0.5,1.2-1.2V4.5c0-0.6-0.5-1.2-1.2-1.2H4c-0.6,0-1.2,0.5-1.2,1.2v9.3c0,0.6,0.5,1.2,1.2,1.2s1.1,0.5,1.1,1.2v3.5L11.3,14.9z M15.4,11.4c-1.3,0-2.3-1-2.3-2.3s1-2.3,2.3-2.3s2.3,1,2.3,2.3S16.7,11.4,15.4,11.4z M8.6,11.4c-1.3,0-2.3-1-2.3-2.3s1-2.3,2.3-2.3s2.3,1,2.3,2.3S9.8,11.4,8.6,11.4z"/></svg>
