<svg id="twrp-cal-di-2-f" viewBox="0 0 20 20"><path d="M15.7,2.9h3.4V20H0.9V2.9h3.4V1.7c0-0.5,0.2-0.9,0.5-1.2C5.1,0.2,5.5,0,6,0s0.9,0.2,1.2,0.5c0.3,0.3,0.5,0.7,0.5,1.2v1.1h4.6V1.7c0-0.5,0.2-0.9,0.5-1.2C13.1,0.2,13.5,0,14,0s0.9,0.2,1.2,0.5c0.3,0.3,0.5,0.7,0.5,1.2C15.7,1.7,15.7,2.9,15.7,2.9z M5.4,1.7v2.9c0,0.2,0.1,0.3,0.2,0.4C5.7,5.1,5.8,5.1,6,5.1S6.3,5.1,6.4,5c0.1-0.1,0.2-0.3,0.2-0.4V1.7c0-0.2-0.1-0.3-0.2-0.4C6.3,1.2,6.2,1.1,6,1.1S5.7,1.2,5.6,1.3C5.5,1.4,5.4,1.6,5.4,1.7z M13.4,1.7v2.9c0,0.2,0.1,0.3,0.2,0.4c0.1,0.1,0.3,0.2,0.4,0.2s0.3-0.1,0.4-0.2c0.1-0.1,0.2-0.3,0.2-0.4V1.7c0-0.2-0.1-0.3-0.2-0.4c-0.1-0.1-0.3-0.2-0.4-0.2s-0.3,0.1-0.4,0.2C13.5,1.4,13.4,1.6,13.4,1.7z M18,18.9V7.4H2v11.4H18z M6.6,8.6v2.3H4.3V8.6H6.6z M8.9,8.6h2.3v2.3H8.9V8.6z M13.4,10.9V8.6h2.3v2.3H13.4z M6.6,12v2.3H4.3V12H6.6z M8.9,12h2.3v2.3H8.9V12z M13.4,14.3V12h2.3v2.3H13.4z M6.6,15.4v2.3H4.3v-2.3H6.6z M11.1,17.7H8.9v-2.3h2.3V17.7z M15.7,17.7h-2.3v-2.3h2.3V17.7z"/></svg>
