<svg id="twrp-cal-ti-c-ol" viewBox="0 0 24 24"><path d="M17.3,12c0-0.7-0.6-1.3-1.3-1.3h-4c-0.7,0-1.3,0.6-1.3,1.3s0.6,1.3,1.3,1.3h4C16.7,13.3,17.3,12.7,17.3,12z M12,2.7c5.1,0,9.3,4.2,9.3,9.3s-4.2,9.3-9.3,9.3S2.7,17.1,2.7,12S6.9,2.7,12,2.7 M12,0C5.4,0,0,5.4,0,12s5.4,12,12,12s12-5.4,12-12S18.6,0,12,0z M13.3,8c0-0.7-0.6-1.3-1.3-1.3S10.7,7.3,10.7,8v4c0,0.7,0.6,1.3,1.3,1.3s1.3-0.6,1.3-1.3V8z M12,5.3c3.7,0,6.7,3,6.7,6.7s-3,6.7-6.7,6.7s-6.7-3-6.7-6.7S8.3,5.3,12,5.3 M12,4c-4.4,0-8,3.6-8,8c0,4.4,3.6,8,8,8s8-3.6,8-8C20,7.6,16.4,4,12,4z"/></svg>
