<svg id="twrp-views-ii-ios-f" viewBox="0 0 512 512"><path d="M504.4,256.3C445.5,188.4,364.2,110.4,256,110.4c-43.7,0-83.7,12.3-126,38.7C94.4,171.5,57.9,203,7.7,254.7L6.4,256l8.7,9C86.7,338.3,148.6,401.6,256,401.6c47.5,0,93.5-15.5,140.7-47.3c40.2-27.2,74.4-61.6,101.8-89.4l7.1-7.2L504.4,256.3z M256,360c-57.3,0-104-46.7-104-104s46.7-104,104-104s104,46.7,104,104S313.3,360,256,360z"/><path d="M248.7,218c0-9,2.6-17.4,7.2-24.4c-34.4,0-62.3,28.1-62.3,62.7s27.9,62.5,62.3,62.5s62.4-28,62.4-62.5l0,0c-7,4.6-15.5,7.1-24.4,7.1C269,263.3,248.7,243,248.7,218z"/></svg>
