<svg id="twrp-views-ii-ios-ol" viewBox="0 0 512 512"><path d="M504.4,256.3C445.5,188.4,364.2,110.4,256,110.4c-43.7,0-83.7,12.3-126,38.7C94.4,171.5,57.9,203,7.7,254.7L6.4,256l8.7,9C86.7,338.3,148.6,401.6,256,401.6c47.5,0,93.5-15.5,140.7-47.3c40.2-27.2,74.4-61.6,101.8-89.4l7.1-7.2L504.4,256.3z M256,131.2c43,0,84.4,12.4,126.4,39.8c31.1,20.3,61.6,47.7,95.8,85.9C428.4,307.2,353.6,380.8,256,380.8c-44.5,0-83.5-10.9-122.5-36.7c-35.8-23.5-68-56.3-99.1-88.1C111.3,178.4,175.4,131.2,256,131.2z"/><path d="M256,360c57.3,0,104-46.7,104-104s-46.7-104-104-104s-104,46.7-104,104S198.7,360,256,360z M256,173.2c45.8,0,83.2,37.2,83.2,82.8s-37.4,82.8-83.2,82.8s-83.1-37.2-83.1-82.8S210.2,173.2,256,173.2z"/><path d="M297.6,256L297.6,256c0,22.8-18.7,41.6-41.3,41.6s-41.9-19.8-41.9-42.5c0-22.7,20.5-40.7,41.6-40.7v-20.8c-34.4,0-62.3,28.1-62.3,62.7s27.9,62.5,62.3,62.5s62.4-28.1,62.4-62.5V256H297.6z"/></svg>
