<svg id="twrp-tax-ji-h-f" viewBox="0 0 24 24"><path d="M10.4,10.3v3.1h3.2v-3.1C13.5,10.3,10.4,10.3,10.4,10.3z M10.4,7.2h3.2V2.6c0-0.8,0.7-1.6,1.6-1.6c0.9,0,1.6,0.7,1.6,1.6v4.7h4.7C22.3,7.3,23,8,23,8.9c0,0.8-0.7,1.6-1.6,1.6h-4.7v3.1h4.7c0.9,0,1.6,0.7,1.6,1.6s-0.7,1.6-1.6,1.6h-4.7v4.7c0,0.8-0.7,1.6-1.6,1.6c-0.9,0-1.6-0.7-1.6-1.6v-4.7h-3.2v4.7c0,0.8-0.7,1.6-1.6,1.6c-0.9,0-1.6-0.7-1.6-1.6v-4.7H2.6C1.7,16.7,1,16,1,15.1s0.7-1.6,1.6-1.6h4.7v-3.1H2.6C1.7,10.3,1,9.6,1,8.7s0.7-1.6,1.6-1.6h4.7V2.6C7.2,1.7,7.9,1,8.8,1s1.6,0.7,1.6,1.6V7.2z"/></svg>
