<svg id="twrp-tax-ji-t-f" viewBox="0 0 24 24"><path d="M14.4,3.7l2.5,2.5c0.5,0.5,0.7,1.3,0.5,2l-1.3,4l-8,7.9l-8-7.8l8.1-7.9l4.2-1.3C13.1,3,13.9,3.2,14.4,3.7z M10.6,10c0.6,0.6,1.6,0.6,2.2,0c0.6-0.6,0.6-1.5,0-2.1l0,0c-0.6-0.6-1.6-0.6-2.2,0C10,8.4,10,9.3,10.6,10L10.6,10z M18,11c0.6,0,1-0.1,1.2-0.3c0.7-0.5,0.7-1.5,0.2-2.1c-0.1-0.1-0.3-0.3-0.5-0.4c0.2-0.7-0.1-1.4-0.6-1.8l-1.8-1.7l2.3-0.7c0.7-0.2,1.5,0,2.1,0.5l2.5,2.5c0.5,0.5,0.7,1.3,0.5,2l-1.3,4l-8.1,7.9l-2.9-2.8l5.8-5.7C17.6,12.4,18,11,18,11z"/></svg>
