<svg id="twrp-tax-ji-t-ol" viewBox="0 0 24 24"><path d="M11.6,18.1l1.5-1.4l1.5,1.4l6.3-6.2L22,8.3l-2.5-2.5l-1.1,0.3l-1.6-1.6l2-0.5c0.7-0.2,1.5,0,2.1,0.5L23.4,7c0.5,0.5,0.7,1.3,0.5,2l-1.3,4l-8.1,7.9L11.6,18.1L11.6,18.1z M14.3,3.8l2.5,2.5c0.5,0.5,0.7,1.3,0.5,2l-1.3,4l-8,7.9l-8-7.8l8.1-7.9l4.2-1.3C13,3,13.8,3.2,14.3,3.8L14.3,3.8z M2.9,12.4l5.1,5l6.3-6.2l1.1-3.6l-2.5-2.5L9.2,6.3L2.9,12.4z M10.5,9.9c-0.6-0.6-0.6-1.5,0-2.1s1.6-0.6,2.2,0l0,0c0.6,0.6,0.6,1.6-0.1,2.1C12,10.5,11.1,10.5,10.5,9.9L10.5,9.9z M17.6,11l0.8-2.9c0.5,0.2,0.8,0.3,0.9,0.5c0.5,0.6,0.5,1.6-0.2,2.1C18.8,11,18.3,11,17.6,11z"/></svg>
