<svg id="twrp-user-fa-c-ol" viewBox="0 0 512 512"><path d="M256,99.1c-54.7,0-99.1,44.4-99.1,99.1s44.4,99.1,99.1,99.1s99.1-44.4,99.1-99.1S310.7,99.1,256,99.1z M256,247.8c-27.4,0-49.5-22.2-49.5-49.6s22.2-49.6,49.5-49.6s49.5,22.2,49.5,49.6S283.4,247.8,256,247.8z M256,0C114.6,0,0,114.6,0,256s114.6,256,256,256s256-114.6,256-256S397.4,0,256,0z M256,462.4c-51.3,0-98.2-18.9-134.3-50c15.4-23.7,41.7-39.9,71.8-40.8c21.5,6.6,41.9,9.9,62.5,9.9s41-3.2,62.5-9.9c30.1,1,56.5,17,71.8,40.8C354.2,443.6,307.3,462.4,256,462.4z M423.9,375.6c-25.2-32.4-64.1-53.6-108.5-53.6c-10.5,0-26.8,9.9-59.5,9.9c-32.5,0-48.9-9.9-59.5-9.9c-44.3,0-83.2,21.1-108.5,53.6c-24.2-33.8-38.5-75-38.5-119.6c0-113.8,92.6-206.4,206.5-206.4S462.5,142.2,462.5,256C462.5,300.6,448.1,341.9,423.9,375.6z"/></svg>
